<svg width="64" height="64" viewBox="0 0 64 64" fill="none" xmlns="http://www.w3.org/2000/svg">
<path fill-rule="evenodd" clip-rule="evenodd" d="M41.6596 24.8605C42.488 24.0321 42.488 22.689 41.6596 21.8606C40.8312 21.0323 39.4881 21.0323 38.6597 21.8606L32.0001 28.5203L25.3404 21.8605C24.512 21.0321 23.1689 21.0321 22.3405 21.8605C21.5121 22.6889 21.5121 24.032 22.3405 24.8604L29.0003 31.5201L21.8606 38.6598C21.0322 39.4882 21.0322 40.8312 21.8606 41.6596C22.689 42.488 24.0321 42.488 24.8605 41.6596L32.0001 34.52L39.1397 41.6595C39.968 42.4879 41.3111 42.4879 42.1395 41.6595C42.9679 40.8311 42.9679 39.4881 42.1395 38.6597L35 31.5201L41.6596 24.8605Z" fill="#3F3F3F"/>
</svg>
