<svg width="404" height="312" viewBox="0 0 404 312" fill="none" xmlns="http://www.w3.org/2000/svg">
<path d="M133.636 92.316C129.526 90.906 138.826 79.606 146.726 75.396C154.636 71.186 165.796 64.976 181.846 65.126C197.896 65.276 207.636 67.766 219.826 73.936C232.016 80.106 235.136 85.486 238.536 90.066C241.936 94.646 244.316 104.496 242.486 107.486C240.656 110.476 237.406 113.736 237.356 114.286" stroke="#262626" stroke-width="2" stroke-linecap="round" stroke-linejoin="round"/>
<path d="M144.716 105.256C144.786 108.566 145.826 111.196 148.726 111.276" stroke="#262626" stroke-width="2" stroke-linecap="round" stroke-linejoin="round"/>
<path d="M129.666 102.246C130.396 105.016 130.606 110.196 133.736 111.536C136.866 112.876 139.886 113.236 141.706 113.276" stroke="#262626" stroke-width="2" stroke-linecap="round" stroke-linejoin="round"/>
<path d="M111.626 103.256C111.606 107.906 111.806 110.926 117.446 113.446C123.086 115.966 129.586 118.426 134.196 118.296C138.806 118.166 139.246 117.196 139.696 116.476" stroke="#262626" stroke-width="2" stroke-linecap="round" stroke-linejoin="round"/>
<path d="M149.825 128.936C150.205 136.106 156.775 139.826 161.305 139.376C165.835 138.926 171.445 136.246 171.205 126.856C170.965 117.466 165.555 114.626 161.095 114.346C156.635 114.066 149.295 119.076 149.815 128.946L149.825 128.936Z" stroke="#262626" stroke-width="2" stroke-linecap="round" stroke-linejoin="round"/>
<path d="M183.746 122.866C184.096 133.576 189.706 138.686 196.616 138.466C203.526 138.246 207.176 132.806 209.086 129.446C210.996 126.086 211.126 124.636 211.476 121.626C211.826 118.616 210.006 113.246 205.476 109.916C200.946 106.586 197.726 105.126 192.956 107.106C188.186 109.086 183.486 115.226 183.736 122.866H183.746Z" stroke="#262626" stroke-width="2" stroke-linecap="round" stroke-linejoin="round"/>
<path d="M161.105 124.356V124.736" stroke="#262626" stroke-width="2" stroke-linecap="round" stroke-linejoin="round"/>
<path d="M197.956 120.256V120.576" stroke="#262626" stroke-width="2" stroke-linecap="round" stroke-linejoin="round"/>
<path d="M171.216 131.836L184.746 129.906" stroke="#262626" stroke-width="2" stroke-linecap="round" stroke-linejoin="round"/>
<path d="M179.465 137.796C174.845 138.296 170.545 138.476 170.995 142.136C171.385 145.296 173.515 145.786 179.775 146.136" stroke="#262626" stroke-width="2" stroke-linecap="round" stroke-linejoin="round"/>
<path d="M226.116 124.236C226.346 122.866 226.936 121.196 229.576 121.506C232.216 121.816 235.496 126.076 234.786 131.596C234.076 137.116 230.536 140.476 228.986 140.026C227.436 139.576 225.056 137.966 225.056 137.966" stroke="#262626" stroke-width="2" stroke-linecap="round" stroke-linejoin="round"/>
<path d="M145.726 148.406C145.686 160.306 149.966 165.686 152.586 170.496C155.206 175.306 163.216 181.716 170.176 184.096C177.136 186.466 187.606 185.456 192.476 183.436C197.346 181.416 203.996 178.236 208.646 173.416C213.296 168.596 218.946 161.346 220.946 154.136" stroke="#262626" stroke-width="2" stroke-linecap="round" stroke-linejoin="round"/>
<path d="M195.386 149.057C195.264 148.082 192.724 149.365 192.471 149.47C190.717 150.201 189.536 152.044 188.599 153.625C187.963 154.699 187.405 156.005 186.416 156.8C184.382 158.436 182.042 159.635 179.948 161.191C178.368 162.365 176.592 163.949 177.115 166.042C177.654 168.197 179.239 170.022 181.695 170.303C182.347 170.378 182.766 170.674 183.359 170.822C184.612 171.136 186.074 170.941 187.36 170.941C189.176 170.941 190.526 170.244 192.199 169.453C193.947 168.628 195.912 166.923 197.251 165.546C198.398 164.367 198.565 162.969 199.329 161.581C200.055 160.259 200.698 159.125 200.698 157.603C200.698 156.22 200.344 154.973 200.273 153.613C200.232 152.844 199.435 151.553 198.998 150.922C198.632 150.394 197.807 150.287 197.511 149.695" stroke="#262626" stroke-width="2" stroke-linecap="round"/>
<path d="M226.018 177.823C226.32 178.729 227.889 178.607 228.612 178.614C234.159 178.669 239.742 178.569 245.21 177.537C251.134 176.418 257.094 174.58 262.445 171.777C270.284 167.671 276.494 161.261 282.385 154.784C286.813 149.915 291.948 144.899 294.3 138.603C296.757 132.026 297.272 124.698 297.422 117.74C297.568 110.952 296.811 103.211 290.123 99.8674" stroke="#262626" stroke-width="2" stroke-linecap="round"/>
<path d="M289.332 98.6802C289.131 97.6739 288.103 97.7007 288.145 96.6137C288.183 95.6247 289.042 95.1969 289.332 94.3274" stroke="#262626" stroke-width="2" stroke-linecap="round"/>
<path d="M320.989 78.4987C322.554 78.4987 322.812 78.4144 323.539 79.6859C324.297 81.0123 326.022 81.4855 326.727 82.8955C328.748 86.9383 329.677 91.3266 330.31 95.7562C331.561 104.514 334.76 113.707 333.652 122.643C332.509 131.853 331.34 141.293 326.968 149.551C325.215 152.863 324.121 156.51 322.264 159.752C319.402 164.746 314.982 168.973 311.338 173.404C306.8 178.92 301.93 183.864 296.213 188.111C291.843 191.357 287.228 194.404 282.649 197.3C280.486 198.668 276.773 202.334 274.5 203.5" stroke="#262626" stroke-width="2" stroke-linecap="round"/>
<path d="M71.6898 210.271C71.6898 212.004 71.3929 213.034 73.3606 213.349C79.8617 214.389 87.6641 213.473 93.9816 212.03C98.9288 210.9 103.106 208.878 106.688 205.347C107.218 204.825 111.818 201.623 110.777 200.466C109.886 199.475 110.077 203.213 110.074 203.324C110.025 205.09 109.299 206.79 109.414 208.556C109.61 211.541 111.143 214.473 111.657 217.438C112.57 222.709 113.237 227.877 115.086 232.937C116.784 237.582 118.874 242.16 120.89 246.677C121.285 247.562 124.711 252.207 124.32 251.425" stroke="#262626" stroke-width="2" stroke-linecap="round"/>
<path d="M69.7109 217.394C69.7109 222.721 70.1898 227.961 71.3378 233.179C73.8694 244.686 81.2516 255.461 88.0896 264.792C91.2117 269.052 94.5519 273.024 98.2462 276.795C100.441 279.035 102.479 281.929 105.017 283.786C106.598 284.942 109.638 286.178 111.656 286.248C116.459 286.414 121.207 286.137 125.858 284.885C129.694 283.852 135.286 280.74 137.532 277.323C141.812 270.808 145.374 263.512 149.293 256.745C152.119 251.867 152.139 246.869 153.206 241.533" stroke="#262626" stroke-width="2" stroke-linecap="round"/>
<path d="M116.405 234.014C116.405 229.044 116.93 224.713 118.472 219.944C120.783 212.796 122.778 204.871 127.881 199.059C130.997 195.511 135.411 193.035 139.752 191.365C142.644 190.253 151.556 188.111 148.458 188.111" stroke="#262626" stroke-width="2" stroke-linecap="round"/>
<path d="M276 202.5C272 205.5 264.963 207.105 262.46 207.582C262.193 207.633 258.822 207.632 259.124 208.236C259.607 209.202 260.916 209.532 261.491 210.49C262.495 212.165 262.66 214.437 263.384 216.239C265.951 222.622 270.554 228.024 273.326 234.365C276.836 242.392 278.772 251.251 279.977 259.885C280.563 264.085 280.901 268.316 281.533 272.509C282.1 276.281 283.022 280.002 283.201 283.826C283.338 286.748 282.074 289.343 282.074 292.168" stroke="#262626" stroke-width="2" stroke-linecap="round"/>
<path d="M151.001 255.24C151.78 267.788 150.842 280.33 152.805 292.799C153.591 297.791 154.474 302.989 155.871 307.859C156.14 308.795 156.365 310.023 157.494 310.023" stroke="#262626" stroke-width="2" stroke-linecap="round"/>
<path d="M290.595 93.3284C291.311 93.3284 292.23 93.6351 292.94 93.8243C295.351 94.4673 297.978 94.5457 300.47 94.5457C304.728 94.5457 309.194 93.7192 312.824 91.2994C315.893 89.2532 318.189 85.0702 318.189 81.5603" stroke="#262626" stroke-width="2" stroke-linecap="round"/>
<path d="M292.569 92.7006C291.947 91.4578 291.638 90.3408 291.396 88.9828C291.187 87.809 289.649 86.96 289.649 85.9636" stroke="#262626" stroke-width="2" stroke-linecap="round"/>
<path d="M317.72 82.3704C317.501 80.3981 316.367 79.9885 314.938 78.8771C314.502 78.538 314.259 78.1995 313.678 77.9788C313.153 77.7792 313.021 77.3607 312.555 77.2053" stroke="#262626" stroke-width="2" stroke-linecap="round"/>
<path d="M288.751 84.8408C285.761 82.7667 283.148 81.0794 280.991 78.1038C280.18 76.9853 278.876 75.9866 278.334 74.7103C277.754 73.3455 277.597 72.0187 277.523 70.5683C277.487 69.8782 277.074 69.3697 277.074 68.622C277.074 68.0024 277.074 67.3828 277.074 66.7631C277.074 66.1252 277.639 65.3156 277.747 64.6297C277.809 64.2411 278.157 63.9762 278.371 63.6816C278.555 63.4288 278.796 62.3758 278.858 62.0347C279.151 60.4201 280.682 59.2438 281.565 57.9426C282.078 57.186 281.648 55.2857 282.351 54.9733C282.877 54.7395 283.407 54.688 283.985 54.7737C286.459 55.1402 288.788 55.3979 291.296 55.4225C293.361 55.4427 295.412 55.647 297.484 55.647C299.401 55.647 301.567 55.9105 303.435 55.3975C304.124 55.2084 305.107 54.2502 305.481 55.0731C305.795 55.7623 306.352 56.4506 306.816 57.0443C308.517 59.2177 308.862 61.516 306.629 63.6816C305.415 64.8592 303.93 64.6297 302.325 64.6297C300.291 64.6297 298.111 64.8369 296.087 64.5798C294.729 64.4074 293.411 64.4052 292.032 64.4052C291.879 64.4052 292.344 64.589 292.344 64.742C292.344 65.1264 292.362 65.735 292.719 65.9771C293.71 66.6496 295.026 67.2693 296.112 67.7737C296.828 68.1059 297.719 68.298 298.383 68.7218C298.749 68.9557 298.685 69.4595 298.957 69.7698C299.96 70.9166 299.64 72.5207 300.204 73.837" stroke="#262626" stroke-width="2" stroke-linecap="round"/>
<path d="M310.759 76.3072C310.535 75.1882 310.347 74.3054 310.309 73.0884C310.295 72.6378 309.636 71.2778 309.636 71.3667" stroke="#262626" stroke-width="2" stroke-linecap="round"/>
<path d="M285.106 50.3918C286.299 51.6247 287.044 52.8227 287.961 54.1981" stroke="#262626" stroke-width="2" stroke-linecap="round"/>
<path d="M277.874 61.0492C276.952 60.3119 276.5 58.5221 276.552 57.3699C276.679 54.5789 276.927 51.9772 278.212 49.4508C279.094 47.7184 280.153 45.9078 281.617 44.5978C282.158 44.1139 283.008 43.866 283.657 43.5511C284.96 42.9193 286.211 42.9183 287.665 42.9802C289.434 43.0555 290.771 43.9605 292.38 44.5767C293.047 44.8322 293.71 45.1911 294.304 45.5917C294.881 45.9806 295.063 46.8052 295.467 47.3468C295.97 48.0198 296.618 48.5532 297.096 49.2499C297.451 49.769 297.756 50.3812 298.195 50.8358C298.504 51.1554 298.923 51.3225 299.104 51.7662C299.251 52.1256 299.124 52.4205 299.379 52.6755" stroke="#262626" stroke-width="2" stroke-linecap="round"/>
<path d="M293.67 43.3502C294.552 41.8501 298.436 41.9994 299.866 42.2507C301.167 42.4792 302.181 44.1533 303.143 44.9785C304.669 46.2865 305.929 47.7126 307.52 48.9539C308.66 49.8424 311.069 51.5505 311.358 53.1407C311.518 54.0203 311.258 54.9109 310.988 55.7205" stroke="#262626" stroke-width="2" stroke-linecap="round"/>
<path d="M311.179 58.7655C313.033 60.6195 314.535 58.8609 316.085 57.5179C318.094 55.7763 318.838 53.6959 317.628 51.1424C316.147 48.0151 313.487 46.2916 310.862 44.2806C310.243 43.8071 305.003 40.9445 304.328 42.9696" stroke="#262626" stroke-width="2" stroke-linecap="round"/>
<path d="M309.466 71.7066C311.13 70.7708 313.318 69.5045 313.462 67.2872C313.551 65.9238 314.116 62.3274 312.701 61.6201" stroke="#262626" stroke-width="2" stroke-linecap="round"/>
<path d="M75.4697 196.441C76.1057 198.508 76.1746 200.573 76.1746 202.719C76.1746 203.703 75.971 207.572 77.1144 207.953" stroke="#262626" stroke-width="2" stroke-linecap="round"/>
<path d="M101.315 203.959C101.184 201.47 99.2214 199.809 98.3384 197.642C97.746 196.187 98.0314 194.573 97.3203 193.151" stroke="#262626" stroke-width="2" stroke-linecap="round"/>
<path d="M74.06 194.326C72.0756 191.428 70.2248 188.508 67.9904 185.79C66.6671 184.18 65.1427 182.443 64.6619 180.36C64.2782 178.697 64.1022 177.001 64.192 175.295C64.2582 174.038 65.4443 172.46 66.2543 171.588C66.6008 171.215 67.7473 170.024 67.4813 169.891" stroke="#262626" stroke-width="2" stroke-linecap="round"/>
<path d="M69.1525 174.272C69.2292 173.275 68.8913 172.436 68.7979 171.456C68.6535 169.939 69.0252 168.678 69.5697 167.295C70.1443 165.835 70.836 164.427 71.4104 162.967C71.614 162.45 72.0454 161.561 72.5002 161.205C72.9457 160.856 73.4222 160.534 73.955 160.334C74.4416 160.151 74.964 160.131 75.4411 159.911C75.7365 159.776 76.0425 159.811 76.3536 159.87C76.4892 159.895 77.4114 160.006 77.2244 160.099" stroke="#262626" stroke-width="2" stroke-linecap="round"/>
<path d="M78.1631 163.947C78.1631 164.156 78.1573 163.53 78.1736 163.322C78.2186 162.748 78.3852 162.171 78.5803 161.632C78.9863 160.51 79.631 159.543 80.3428 158.597C80.7475 158.06 81.2471 157.801 81.8967 157.92C81.9833 157.935 82.5377 157.912 82.293 158.034" stroke="#262626" stroke-width="2" stroke-linecap="round"/>
<path d="M84.6396 162.821C84.3801 162.432 84.37 161.511 84.4206 161.069C84.5314 160.104 84.9123 159.007 85.4114 158.17C86.086 157.038 87.2287 157.149 88.3002 156.72" stroke="#262626" stroke-width="2" stroke-linecap="round"/>
<path d="M91.1159 163.384C91.0929 162.994 90.9311 162.588 90.876 162.195C90.7454 161.265 90.6729 159.926 90.9177 159.015C91.6291 156.366 95.08 156.55 97.2115 157.002C97.8872 157.145 98.2542 157.469 98.8593 157.706C99.5454 157.974 100.375 158.111 100.95 158.597C101.348 158.934 101.492 159.478 101.769 159.901C102.059 160.344 102.191 160.577 102.191 161.132" stroke="#262626" stroke-width="2" stroke-linecap="round"/>
<path d="M102.379 162.727C103.597 163.539 103.365 165.849 103.453 167.107C103.548 168.46 103.886 170.148 103.286 171.415C103.039 171.937 102.048 172.019 101.539 172.155C101.115 172.269 100.509 172.592 100.22 172.207" stroke="#262626" stroke-width="2" stroke-linecap="round"/>
<path d="M98.0617 168.171C98.9036 168.412 99.036 170.081 99.3758 170.737C99.6944 171.352 100.112 171.916 100.393 172.551C100.817 173.513 100.749 174.541 100.794 175.565C100.824 176.229 101.032 176.764 101.211 177.39C101.428 178.144 101.465 178.988 101.514 179.768C101.592 181.01 101.535 182.269 101.535 183.512C101.535 185.235 101.61 186.771 100.742 188.341C100.009 189.666 99.1506 191.16 97.874 192.011" stroke="#262626" stroke-width="2" stroke-linecap="round"/>
<path d="M67.7969 65.856C67.5965 69.4645 64.4134 72.8964 62.7259 75.9647C61.6374 77.9437 59.1149 79.3761 62.1921 80.4018C65.2927 81.4354 68.7264 82.0699 72.0006 82.0699C74.0708 82.0699 73.7455 81.5933 73.8021 79.6679C73.8674 77.4474 75.3454 75.3441 75.5703 73.0955C75.7237 71.5614 75.7427 69.0704 76.3376 67.6575C76.8727 66.3867 77.6121 65.856 76.1041 65.856C73.1349 65.856 70.1656 65.856 67.1964 65.856" stroke="#4FC9FE" stroke-width="2" stroke-linecap="round"/>
<path d="M244.349 53.2452C246.083 57.6464 247.841 59.8618 251.455 62.7534C253.291 64.2221 255.346 63.3679 257.294 64.1879C257.522 64.2842 256.548 64.3446 257.294 62.8534C257.698 62.0439 258.619 59.5477 259.362 59.2503C263.232 57.7024 256.474 54.5431 255.459 54.1459C253.822 53.5055 252.98 52.3663 251.689 51.3102C250.361 50.2237 247.676 51.7391 246.151 52.0441" stroke="#4EDB4B" stroke-width="2" stroke-linecap="round"/>
<path d="M36.5701 154.733C33.9052 154.733 31.5957 153.204 28.8634 152.931C27.0933 152.754 23.1811 151.945 21.6906 150.996C21.5557 150.91 20.3561 155.471 20.3561 156.267C20.3561 159.526 18.7765 160.738 22.7915 160.738C27.3805 160.738 31.8324 162.539 36.3032 162.539C38.9751 162.539 37.2155 162.973 37.1706 161.805C37.0974 159.902 37.1718 158.339 36.5701 156.534" stroke="#FE654F" stroke-width="2" stroke-linecap="round"/>
<path d="M12.5493 96.4824C8.99582 96.4824 4.17867 98.4949 1.43971 100.686C0.333951 101.571 1.65154 105.32 1.73997 106.558C1.8968 108.753 4.69979 107.19 5.81015 106.825C6.94233 106.452 16.3838 103.76 16.1524 103.355C15.0008 101.34 13.6259 99.2361 12.5493 97.0829" stroke="#FEA34F" stroke-width="2" stroke-linecap="round"/>
<path d="M344.035 227.996C342.794 227.996 336.527 231.609 335.995 232.566C335.385 233.664 342.56 244.431 344.969 244.11C346.569 243.896 351.563 239.779 352.309 238.205C353.576 235.529 348.566 230.033 347.037 227.996" stroke="#FE654F" stroke-width="2" stroke-linecap="round"/>
<path d="M364.453 137.918C364.453 140.665 361.485 144.568 359.048 145.858C356.376 147.273 361.578 149.55 362.985 149.295C366.54 148.648 367.522 144.403 368.957 141.821C370.216 139.554 366.327 136.717 364.453 136.717" stroke="#4FC9FE" stroke-width="2" stroke-linecap="round"/>
<path d="M22.7582 247.813C21.7296 248.784 11.6046 253.383 11.6152 253.484C11.84 255.62 12.4964 257.466 12.5494 259.69C12.618 262.573 14.8739 261.381 16.6196 260.691C20.2227 259.266 23.6065 258.012 25.8942 255.153C27.1576 253.573 23.9592 249.567 23.9592 247.212" stroke="#FEA34F" stroke-width="2" stroke-linecap="round"/>
<path d="M401.084 213.583C398.922 213.463 396.885 212.918 395.546 211.181C394.946 210.404 393.395 207.767 393.01 208.446C391.14 211.746 385.29 210.896 388.507 215.118C390.308 217.482 391.982 219.599 394.445 221.323C395.759 222.243 399.03 222.426 399.883 223.492C400.476 224.233 402.285 216.191 402.285 214.784" stroke="#FEA34F" stroke-width="2" stroke-linecap="round"/>
<path d="M351.241 48.4411C354.593 48.4411 358.382 48.8563 361.617 47.8072C363.62 47.1576 364.452 45.9067 364.452 48.5745C364.452 51.6044 365.207 52.6528 362.384 53.3787C359.429 54.1384 356.56 54.1633 353.643 54.9133C350.018 55.8455 351.241 52.4014 351.241 49.6421" stroke="#FE654F" stroke-width="2" stroke-linecap="round"/>
<path d="M139.859 23.2193C135.86 23.3369 128.53 25.5724 125.447 21.718C124.834 20.9527 124.796 25.7335 124.713 26.2219C124.645 26.6211 122.882 30.6265 123.178 30.8926C123.571 31.2462 127.242 32.6105 127.915 32.7942C129.899 33.3353 132.218 33.6872 134.221 33.9953C136.349 34.3227 137.457 34.2812 137.457 32.0936C137.457 29.8817 138.057 27.8211 138.057 25.6214" stroke="#FE654F" stroke-width="2" stroke-linecap="round"/>
<path d="M189.702 1C187.602 3.65524 185.706 6.0882 183.23 8.33966C182.002 9.456 181.731 8.71443 183.13 10.3747C186.029 13.8183 187.38 19.2232 192.571 19.0155C193.082 18.9951 194.569 16.6369 194.973 16.0129C195.322 15.4735 198.497 13.2499 197.776 13.0437C193.198 11.7359 193.538 6.03723 190.302 2.80155" stroke="#FE654F" stroke-width="2" stroke-linecap="round"/>
<path d="M129.65 161.338C127.714 162.477 125.653 164.996 123.345 165.509C119.534 166.355 120.602 173.86 125.113 172.114C128.315 170.875 131.005 169.399 133.253 167.01C133.759 166.473 131.335 161.939 130.251 161.939" stroke="#4EDB4B" stroke-width="2" stroke-linecap="round"/>
<path d="M246.751 258.022C246.3 261.634 239.325 260.669 239.545 264.627C239.74 268.128 248.133 277.577 251.856 273.568C252.502 272.872 255.107 270.313 255.159 269.432C255.254 267.815 255.706 268.602 254.291 268.197C253.441 267.954 251.401 265.331 250.822 264.627C249.049 262.475 247.952 263.356 247.952 260.424" stroke="#4FC9FE" stroke-width="2" stroke-linecap="round"/>
<path d="M247.351 173.949C247.351 175.557 247.352 177.06 246.884 178.62C246.046 181.414 244.766 182.357 248.452 182.357C250.891 182.357 253.286 182.654 255.558 181.756C257.522 180.98 259.56 179.738 261.664 179.387C262.085 179.317 259.426 173.244 259.362 172.148C259.189 169.216 250.908 172.764 249.153 173.349" stroke="#FE654F" stroke-width="2" stroke-linecap="round"/>
<path d="M94.82 294.653C94.2588 296.898 92.2047 298.544 90.3495 299.724C88.1522 301.123 88.5436 300.556 90.8833 301.893C92.1031 302.59 92.3762 304.004 93.6857 304.495C94.7662 304.9 95.7195 304.557 96.0544 305.729C96.2305 306.346 98.9841 303.251 99.3239 302.76C100.428 301.166 105.05 294.053 102.627 294.053C101.242 294.053 93.7773 293.769 94.2195 294.653" stroke="#FE654F" stroke-width="2" stroke-linecap="round"/>
</svg>
