<svg width="55" height="48" viewBox="0 0 55 48" fill="none" xmlns="http://www.w3.org/2000/svg">
<rect x="18.9375" y="14.9376" width="18.7499" height="18.7499" rx="2.1875" stroke="#3F3F3F" stroke-width="1.875"/>
<path d="M34.0635 14.002L26.0402 24.4159L21.7172 18.4746C20.9339 17.398 19.4261 17.1603 18.3495 17.9436L18.9011 18.7017L18.3495 17.9436C17.273 18.7269 17.0352 20.2347 17.8186 21.3112L24.0357 29.8559C24.4825 30.4699 25.1926 30.8376 25.9519 30.848C26.7113 30.8584 27.4312 30.5104 27.8947 29.9088L37.8828 16.9446C38.6954 15.8899 38.4991 14.3762 37.4445 13.5636L36.8775 14.2995L37.4445 13.5636C36.3898 12.751 34.8761 12.9473 34.0635 14.002Z" fill="#3F3F3F" stroke="white" stroke-width="1.875" stroke-linecap="round" stroke-linejoin="round"/>
</svg>
