<svg width="64" height="64" viewBox="0 0 64 64" fill="none" xmlns="http://www.w3.org/2000/svg">
<path fill-rule="evenodd" clip-rule="evenodd" d="M45 25.4176V21C45 19.8954 44.1046 19 43 19H27.95C28.8956 17.8879 30.0814 16.8733 31.5339 16H39.3561C40.1276 16.356 40.8831 16.7966 41.6082 17.3049C41.8259 17.4575 42.0408 17.6162 42.2525 17.7805L43.545 16.0294C44.5517 16.1385 45.4689 16.5465 46.2058 17.1628L47.9991 20.9036C47.9997 20.9356 48 20.9678 48 21V25.8347L45 25.4176ZM45 32.4725V27.4368L48 27.854V44C48 46.7614 45.7614 49 43 49H20C17.2386 49 15 46.7614 15 44V21C15 18.2386 17.2386 16 20 16H28.1235C27.0606 16.9153 26.1696 17.9232 25.4419 19H20C18.8954 19 18 19.8954 18 21V32.633C17.9987 32.7648 17.9987 32.8957 18 33.0257V44C18 45.1046 18.8954 46 20 46H24.0425C24.6319 46.5062 25.216 46.9441 25.7696 47.317C27.6318 48.5713 30.1367 48.046 31.3578 46.18C31.3966 46.1207 31.4337 46.0606 31.4691 46H43C44.1046 46 45 45.1046 45 44V41.4204C45.3368 40.7142 45.5549 39.9815 45.6802 39.2824C46.0371 37.2905 45.7576 35.1794 45.2544 33.3303C45.1767 33.0447 45.0917 32.7585 45 32.4725ZM27.9867 46H28.0157C28.006 46.0001 27.9964 46.0001 27.9867 46Z" fill="#FEA34F"/>
<path fill-rule="evenodd" clip-rule="evenodd" d="M33.69 19.4638C34.4196 19.034 35.4868 18.9333 36.8871 19.4073C37.8419 19.7305 38.856 20.2949 39.8333 21.0582L38.1478 23.3419C37.8081 23.8022 38.086 24.4562 38.655 24.5353L49.1338 25.9923C49.7331 26.0757 50.185 25.4634 49.9248 24.9206L45.3752 15.4302C45.1281 14.9148 44.4167 14.8481 44.077 15.3084L42.2525 17.7804C40.9751 16.7893 39.5835 16.0035 38.1644 15.5231C36.073 14.8153 33.7145 14.7145 31.6634 15.9228C28.9834 17.5016 27.1942 19.5553 26.1357 21.8179C22.9757 23.1209 20.6872 26.2065 20.1542 30.4272C19.1116 38.6822 23.5784 43.4297 26.8869 45.6581C27.8154 46.2835 29.0678 46.0268 29.6842 45.0848C30.3007 44.1428 30.0477 42.8722 29.1192 42.2468C26.5986 40.5491 23.3752 37.1409 24.1574 30.9476C24.2902 29.8959 24.5619 28.9979 24.9371 28.2465C24.9803 29.0629 25.0902 29.8758 25.2605 30.675C26.3589 35.8279 30.0108 40.6752 34.7278 42.5311C36.92 43.3936 38.9724 43.6682 40.6839 42.9683C42.5304 42.2133 43.417 40.5734 43.7115 38.9296C43.9973 37.3343 43.7837 35.5428 43.3245 33.8554C42.858 32.1411 42.0975 30.3847 41.1416 28.8046C38.5147 24.4629 34.9562 21.9005 31.367 21.2804C32.001 20.6162 32.7709 20.0053 33.69 19.4638ZM29.2053 29.8096C28.8779 28.2734 28.8489 26.7187 29.1994 25.2458C31.6591 25.0468 35.0211 26.5159 37.7019 30.9467C38.4696 32.2155 39.0733 33.6194 39.4341 34.9451C39.8021 36.2976 39.8788 37.4256 39.7406 38.1973C39.611 38.9206 39.359 39.0953 39.1751 39.1705C38.8563 39.3009 37.9864 39.4214 36.1871 38.7134C32.9209 37.4284 30.0618 33.8276 29.2053 29.8096Z" fill="#FEA34F"/>
</svg>
