<svg width="48" height="48" viewBox="0 0 48 48" fill="none" xmlns="http://www.w3.org/2000/svg">
<path fill-rule="evenodd" clip-rule="evenodd" d="M38.1956 8.49002C39.2268 9.28453 39.4187 10.7646 38.6242 11.7958L22.6431 32.5386C22.1899 33.1269 21.4861 33.4671 20.7436 33.4569C20.0011 33.4468 19.3068 33.0873 18.8699 32.4869L8.9225 18.8155C8.15658 17.7628 8.38902 16.2886 9.44167 15.5227C10.4943 14.7567 11.9686 14.9892 12.7345 16.0418L20.8299 27.1678L34.8897 8.91866C35.6843 7.88742 37.1643 7.69551 38.1956 8.49002Z" fill="#5C5C5C"/>
<path fill-rule="evenodd" clip-rule="evenodd" d="M31.8103 8.00012H13C10.2794 8.00012 8.06635 10.1729 8.00146 12.8779C8.99396 12.2599 10.1224 12.0046 11.2208 12.0858C11.5527 11.4411 12.2249 11.0001 13 11.0001H29.499L31.8103 8.00012ZM36.4505 8.02015C35.8535 8.09843 35.2862 8.40404 34.8897 8.91869L33.2861 11.0001H35.9999C36.9838 11.0001 37.8018 11.7106 37.9687 12.6466L38.6242 11.7959C39.404 10.7836 39.2335 9.33899 38.2517 8.5347C37.7019 8.25686 37.0937 8.0776 36.4505 8.02015ZM11 26.7698V36C11 37.1046 11.8954 38 13 38H35.9999C37.1045 38 37.9999 37.1046 37.9999 36V17.5217L40.9999 13.6278V36C40.9999 38.7614 38.7613 41 35.9999 41H13C10.2386 41 8 38.7614 8 36V22.6467L11 26.7698ZM11 21.6708V15.0777C10.4635 15.0383 9.91071 15.1814 9.44164 15.5227C8.38899 16.2886 8.15655 17.7628 8.92246 18.8155L11 21.6708Z" fill="#5C5C5C"/>
</svg>
