<svg width="48" height="48" viewBox="0 0 48 48" fill="none" xmlns="http://www.w3.org/2000/svg">
<g opacity="0.8">
<path d="M13 30.5H29V35.5H13V30.5Z" fill="#FEA34F"/>
<path d="M23 29C20.5 29 15.6667 29.8333 14 30.5V31.5H28.5V30.5C26.5 29.5 24.6 29 23 29Z" fill="#FEA34F"/>
<path d="M17 33H28V38H17V33Z" fill="#FEA34F"/>
</g>
<path fill-rule="evenodd" clip-rule="evenodd" d="M37 20.5116V20.5115L40 16.7004V16.7005L37 20.5116ZM17.8725 8H12C9.23858 8 7 10.2386 7 13V31.1731C7.17694 30.6483 7.44626 30.1416 7.81345 29.6751L10 26.8974V13C10 11.8954 10.8954 11 12 11H17.3575L17.8725 8ZM10 30.1309L9.38497 30.9122C8.30254 32.2873 8.6375 34.2451 10 35.2115V30.1309ZM16.1249 38L22.871 41H29.5491C29.713 40.7092 29.8313 40.3843 29.8919 40.0316L30.2406 38H26.1821L26.167 38.088L25.969 38H16.1249ZM32.2699 38L31.863 40.37C31.8259 40.5864 31.7757 40.7966 31.7134 41H35C37.7614 41 40 38.7614 40 36V19.934L37.7959 22.734C37.5441 23.0539 37.2783 23.3578 37 23.6453V36C37 37.1046 36.1046 38 35 38H32.2699ZM17.9489 41L9.71058 37.3364C8.35579 36.7339 7.4238 35.6245 7 34.353V36C7 38.7614 9.23858 41 12 41H17.9489Z" fill="#FEA34F"/>
<path fill-rule="evenodd" clip-rule="evenodd" d="M23.8325 8.74396L22.8491 14.4726C22.4019 17.0777 23.78 19.654 26.1951 20.728C28.6103 21.802 31.4463 21.0997 33.0812 19.0228L36.6764 14.4557L23.8325 8.74396ZM24.2833 4.56678C22.4961 3.772 20.4385 4.87261 20.1076 6.80041L18.9067 13.7958C18.1499 18.2049 20.4822 22.5651 24.5698 24.3829C28.6574 26.2006 33.4573 25.012 36.2243 21.4969L40.6145 15.9198C41.8243 14.3829 41.2634 12.1178 39.4762 11.3231L24.2833 4.56678Z" fill="#FEA34F"/>
<rect opacity="0.8" x="23" y="19" width="11" height="3" fill="#FEA34F"/>
<path fill-rule="evenodd" clip-rule="evenodd" d="M26.1671 38.0881L27.1504 32.3595C27.5976 29.7544 26.2195 27.1781 23.8044 26.104C21.3892 25.03 18.5532 25.7323 16.9183 27.8092L13.3231 32.3764L26.1671 38.0881ZM25.7162 42.2652C27.5034 43.06 29.561 41.9594 29.8919 40.0316L31.0928 33.0362C31.8496 28.6272 29.5173 24.2669 25.4297 22.4491C21.3422 20.6314 16.5422 21.82 13.7752 25.3351L9.38505 30.9122C8.1752 32.4491 8.73609 34.7142 10.5233 35.509L25.7162 42.2652Z" fill="#FEA34F"/>
</svg>
