<svg width="64" height="64" viewBox="0 0 64 64" fill="none" xmlns="http://www.w3.org/2000/svg">
<g opacity="0.8">
<path d="M21 38.5H37V43.5H21V38.5Z" fill="#FEA34F"/>
<path d="M31 37C28.5 37 23.6667 37.8333 22 38.5V39.5H36.5V38.5C34.5 37.5 32.6 37 31 37Z" fill="#FEA34F"/>
<path d="M25 41H36V46H25V41Z" fill="#FEA34F"/>
</g>
<path fill-rule="evenodd" clip-rule="evenodd" d="M45 28.5116V28.5115L48 24.7004V24.7005L45 28.5116ZM25.8725 16H20C17.2386 16 15 18.2386 15 21V39.1731C15.1769 38.6483 15.4463 38.1416 15.8135 37.6751L18 34.8974V21C18 19.8954 18.8954 19 20 19H25.3575L25.8725 16ZM18 38.1309L17.385 38.9122C16.3025 40.2873 16.6375 42.2451 18 43.2115V38.1309ZM24.1249 46L30.871 49H37.5491C37.713 48.7092 37.8313 48.3843 37.8919 48.0316L38.2406 46H34.1821L34.167 46.088L33.969 46H24.1249ZM40.2699 46L39.863 48.37C39.8259 48.5864 39.7757 48.7966 39.7134 49H43C45.7614 49 48 46.7614 48 44V27.934L45.7959 30.734C45.5441 31.0539 45.2783 31.3578 45 31.6453V44C45 45.1046 44.1046 46 43 46H40.2699ZM25.9489 49L17.7106 45.3364C16.3558 44.7339 15.4238 43.6245 15 42.353V44C15 46.7614 17.2386 49 20 49H25.9489Z" fill="#FEA34F"/>
<path fill-rule="evenodd" clip-rule="evenodd" d="M31.8325 16.744L30.8491 22.4726C30.4019 25.0777 31.78 27.654 34.1951 28.728C36.6103 29.802 39.4463 29.0997 41.0812 27.0228L44.6764 22.4557L31.8325 16.744ZM32.2833 12.5668C30.4961 11.772 28.4385 12.8726 28.1076 14.8004L26.9067 21.7958C26.1499 26.2049 28.4822 30.5651 32.5698 32.3829C36.6574 34.2006 41.4573 33.012 44.2243 29.4969L48.6145 23.9198C49.8243 22.3829 49.2634 20.1178 47.4762 19.3231L32.2833 12.5668Z" fill="#FEA34F"/>
<rect opacity="0.8" x="31" y="27" width="11" height="3" fill="#FEA34F"/>
<path fill-rule="evenodd" clip-rule="evenodd" d="M34.1671 46.0881L35.1504 40.3595C35.5976 37.7544 34.2195 35.1781 31.8044 34.104C29.3892 33.03 26.5532 33.7323 24.9183 35.8092L21.3231 40.3764L34.1671 46.0881ZM33.7162 50.2652C35.5034 51.06 37.561 49.9594 37.8919 48.0316L39.0928 41.0362C39.8496 36.6272 37.5173 32.2669 33.4297 30.4491C29.3422 28.6314 24.5422 29.82 21.7752 33.3351L17.385 38.9122C16.1752 40.4491 16.7361 42.7142 18.5233 43.509L33.7162 50.2652Z" fill="#FEA34F"/>
</svg>
