<svg width="48" height="48" viewBox="0 0 48 48" fill="none" xmlns="http://www.w3.org/2000/svg">
<path fill-rule="evenodd" clip-rule="evenodd" d="M37 17.4176V13C37 11.8954 36.1046 11 35 11H19.95C20.8956 9.8879 22.0814 8.87331 23.5339 8H31.3561C32.1276 8.35603 32.8831 8.79664 33.6082 9.30493C33.8259 9.4575 34.0408 9.61617 34.2525 9.78047L35.545 8.02936C36.5517 8.13849 37.4689 8.54648 38.2058 9.16279L39.9991 12.9036C39.9997 12.9356 40 12.9678 40 13V17.8347L37 17.4176ZM37 24.4725V19.4368L40 19.854V36C40 38.7614 37.7614 41 35 41H12C9.23858 41 7 38.7614 7 36V13C7 10.2386 9.23858 8 12 8H20.1235C19.0606 8.91534 18.1696 9.92322 17.4419 11H12C10.8954 11 10 11.8954 10 13V24.633C9.99869 24.7648 9.9987 24.8957 10 25.0257V36C10 37.1046 10.8954 38 12 38H16.0425C16.6319 38.5062 17.216 38.9441 17.7696 39.317C19.6318 40.5713 22.1367 40.046 23.3578 38.18C23.3966 38.1207 23.4337 38.0606 23.4691 38H35C36.1046 38 37 37.1046 37 36V33.4204C37.3368 32.7142 37.5549 31.9815 37.6802 31.2824C38.0371 29.2905 37.7576 27.1794 37.2544 25.3303C37.1767 25.0447 37.0917 24.7585 37 24.4725ZM19.9867 38H20.0157C20.006 38.0001 19.9964 38.0001 19.9867 38Z" fill="#FEA34F"/>
<path fill-rule="evenodd" clip-rule="evenodd" d="M25.69 11.4638C26.4196 11.034 27.4868 10.9333 28.8871 11.4073C29.8419 11.7305 30.856 12.2949 31.8333 13.0582L30.1478 15.3419C29.8081 15.8022 30.086 16.4562 30.655 16.5353L41.1338 17.9923C41.7331 18.0757 42.185 17.4634 41.9248 16.9206L37.3752 7.43016C37.1281 6.91479 36.4167 6.84809 36.077 7.30843L34.2525 9.78042C32.9751 8.78932 31.5835 8.00346 30.1644 7.52312C28.073 6.81526 25.7145 6.71453 23.6634 7.92284C20.9834 9.50156 19.1942 11.5553 18.1357 13.8179C14.9757 15.1209 12.6872 18.2065 12.1542 22.4272C11.1116 30.6822 15.5784 35.4297 18.8869 37.6581C19.8154 38.2835 21.0678 38.0268 21.6842 37.0848C22.3007 36.1428 22.0477 34.8722 21.1192 34.2468C18.5986 32.5491 15.3752 29.1409 16.1574 22.9476C16.2902 21.8959 16.5619 20.9979 16.9371 20.2465C16.9803 21.0629 17.0902 21.8758 17.2605 22.675C18.3589 27.8279 22.0108 32.6752 26.7278 34.5311C28.92 35.3936 30.9724 35.6682 32.6839 34.9683C34.5304 34.2133 35.417 32.5734 35.7115 30.9296C35.9973 29.3343 35.7837 27.5428 35.3245 25.8554C34.858 24.1411 34.0975 22.3847 33.1416 20.8046C30.5147 16.4629 26.9562 13.9005 23.367 13.2804C24.001 12.6162 24.7709 12.0053 25.69 11.4638ZM21.2053 21.8096C20.8779 20.2734 20.8489 18.7187 21.1994 17.2458C23.6591 17.0468 27.0211 18.5159 29.7019 22.9467C30.4696 24.2155 31.0733 25.6194 31.4341 26.9451C31.8021 28.2976 31.8788 29.4256 31.7406 30.1973C31.611 30.9206 31.359 31.0953 31.1751 31.1705C30.8563 31.3009 29.9864 31.4214 28.1871 30.7134C24.9209 29.4284 22.0618 25.8276 21.2053 21.8096Z" fill="#FEA34F"/>
</svg>
