<svg width="64" height="64" viewBox="0 0 64 64" fill="none" xmlns="http://www.w3.org/2000/svg">
<path fill-rule="evenodd" clip-rule="evenodd" d="M46.1956 16.49C47.2268 17.2845 47.4187 18.7646 46.6242 19.7958L30.6431 40.5386C30.1899 41.1269 29.4861 41.4671 28.7436 41.4569C28.0011 41.4468 27.3068 41.0873 26.8699 40.4869L16.9225 26.8155C16.1566 25.7628 16.389 24.2886 17.4417 23.5227C18.4943 22.7567 19.9686 22.9892 20.7345 24.0418L28.8299 35.1678L42.8897 16.9187C43.6843 15.8874 45.1643 15.6955 46.1956 16.49Z" fill="#5C5C5C"/>
<path fill-rule="evenodd" clip-rule="evenodd" d="M39.8103 16.0001H21C18.2794 16.0001 16.0664 18.1729 16.0015 20.8779C16.994 20.2599 18.1224 20.0046 19.2208 20.0858C19.5527 19.4411 20.2249 19.0001 21 19.0001H37.499L39.8103 16.0001ZM44.4505 16.0201C43.8535 16.0984 43.2862 16.404 42.8897 16.9187L41.2861 19.0001H43.9999C44.9838 19.0001 45.8018 19.7106 45.9687 20.6466L46.6242 19.7959C47.404 18.7836 47.2335 17.339 46.2517 16.5347C45.7019 16.2569 45.0937 16.0776 44.4505 16.0201ZM19 34.7698V44C19 45.1046 19.8954 46 21 46H43.9999C45.1045 46 45.9999 45.1046 45.9999 44V25.5217L48.9999 21.6278V44C48.9999 46.7614 46.7613 49 43.9999 49H21C18.2386 49 16 46.7614 16 44V30.6467L19 34.7698ZM19 29.6708V23.0777C18.4635 23.0383 17.9107 23.1814 17.4416 23.5227C16.389 24.2886 16.1565 25.7628 16.9225 26.8155L19 29.6708Z" fill="#5C5C5C"/>
</svg>
