<svg width="41" height="40" viewBox="0 0 41 40" fill="none" xmlns="http://www.w3.org/2000/svg">
<path fill-rule="evenodd" clip-rule="evenodd" d="M16.6709 27.5L17.0836 29.1938C17.2882 30.0338 18.0407 30.625 18.9053 30.625H28.1138C29.329 30.625 30.2231 29.4868 29.9355 28.3062L27.0423 16.4312C26.8377 15.5912 26.0852 15 25.2206 15H23.08L23.5368 16.875H25.2206L28.1138 28.75L18.9053 28.75L18.6007 27.5H16.6709Z" fill="#3F3F3F"/>
<path fill-rule="evenodd" clip-rule="evenodd" d="M20.8451 13.75H11.6366L14.5298 25.625L23.7383 25.625L20.8451 13.75ZM11.6366 11.875C10.4214 11.875 9.52727 13.0132 9.81491 14.1938L12.7081 26.0688C12.9127 26.9088 13.6652 27.5 14.5298 27.5H23.7383C24.9535 27.5 25.8476 26.3618 25.56 25.1812L22.6668 13.3062C22.4622 12.4662 21.7097 11.875 20.8451 11.875H11.6366Z" fill="#3F3F3F"/>
</svg>
