<svg width="64" height="64" viewBox="0 0 64 64" fill="none" xmlns="http://www.w3.org/2000/svg">
<path fill-rule="evenodd" clip-rule="evenodd" d="M25.8727 44L26.533 46.7101C26.8604 48.0541 28.0644 49 29.4477 49H44.1813C46.1256 49 47.5563 47.1789 47.096 45.2899L42.467 26.2899C42.1395 24.9459 40.9356 24 39.5522 24H36.1273L36.8582 27H39.5522L44.1813 46L29.4477 46L28.9604 44H25.8727Z" fill="#3F3F3F"/>
<path fill-rule="evenodd" clip-rule="evenodd" d="M32.5523 22H17.8187L22.4477 41L37.1813 41L32.5523 22ZM17.8187 19C15.8744 19 14.4437 20.8211 14.9039 22.7101L19.533 41.7101C19.8604 43.0541 21.0644 44 22.4477 44H37.1813C39.1256 44 40.5563 42.1789 40.0961 40.2899L35.467 21.2899C35.1396 19.9459 33.9356 19 32.5523 19H17.8187Z" fill="#3F3F3F"/>
</svg>
