<svg width="40" height="40" viewBox="0 0 40 40" fill="none" xmlns="http://www.w3.org/2000/svg">
<path d="M11.9949 16.2234C11.9473 15.6757 12.3791 15.2047 12.9289 15.2047H26.6188C27.1687 15.2047 27.6004 15.6757 27.5528 16.2234L26.4565 28.8312C26.4144 29.3156 26.0088 29.6875 25.5225 29.6875H14.0252C13.5389 29.6875 13.1334 29.3156 13.0913 28.8312L11.9949 16.2234Z" stroke="#3F3F3F" stroke-width="1.875" stroke-linejoin="round"/>
<path d="M12.6152 12.4248C12.5657 12.511 12.6279 12.6185 12.7273 12.6185H26.8204C26.9198 12.6185 26.9821 12.511 26.9325 12.4248C26.9095 12.3847 26.8667 12.3599 26.8204 12.3599H12.7273C12.6811 12.3599 12.6383 12.3847 12.6152 12.4248Z" stroke="#3F3F3F" stroke-width="1.875"/>
<path d="M10.7149 15.259C10.6944 15.2879 10.69 15.309 10.6892 15.3247C10.6882 15.3441 10.6925 15.3684 10.7053 15.3933C10.7181 15.4182 10.7355 15.4358 10.7518 15.4462C10.7651 15.4547 10.7848 15.4634 10.8202 15.4634H28.7272C28.7626 15.4634 28.7823 15.4547 28.7956 15.4462C28.812 15.4358 28.8293 15.4182 28.8421 15.3933C28.8549 15.3684 28.8592 15.3441 28.8582 15.3247C28.8574 15.309 28.853 15.2879 28.8325 15.259C28.8082 15.225 28.769 15.2048 28.7272 15.2048H10.8202C10.7784 15.2048 10.7392 15.225 10.7149 15.259Z" stroke="#3F3F3F" stroke-width="1.875"/>
<path fill-rule="evenodd" clip-rule="evenodd" d="M19.2193 12.1337C18.5722 12.1337 18.0741 11.5622 18.1625 10.9211C18.2353 10.3932 18.6865 10 19.2193 10H21.0385C21.5713 10 22.0225 10.3932 22.0953 10.9211C22.1837 11.5622 21.6856 12.1337 21.0385 12.1337H19.2193Z" fill="#3F3F3F"/>
<line x1="19.6445" y1="18.7607" x2="19.6445" y2="26.1314" stroke="#3F3F3F" stroke-width="1.875" stroke-linecap="round"/>
<line x1="23.8374" y1="18.8299" x2="23.27" y2="26.2061" stroke="#3F3F3F" stroke-width="1.875" stroke-linecap="round"/>
<line x1="16.2775" y1="26.2061" x2="15.7101" y2="18.8299" stroke="#3F3F3F" stroke-width="1.875" stroke-linecap="round"/>
</svg>
