<svg width="64" height="64" viewBox="0 0 64 64" fill="none" xmlns="http://www.w3.org/2000/svg">
<path d="M19.1916 25.9575C19.1154 25.0811 19.8063 24.3275 20.686 24.3275H42.5899C43.4696 24.3275 44.1605 25.0811 44.0843 25.9575L42.3301 46.1299C42.2627 46.905 41.6138 47.4999 40.8358 47.4999H22.4401C21.6621 47.4999 21.0132 46.905 20.9458 46.1299L19.1916 25.9575Z" stroke="#3F3F3F" stroke-width="3" stroke-linejoin="round"/>
<path d="M20.1841 19.8796C20.1048 20.0175 20.2044 20.1896 20.3635 20.1896H42.9124C43.0715 20.1896 43.1711 20.0175 43.0918 19.8796L44.3923 19.1322L43.0918 19.8796C43.0549 19.8154 42.9865 19.7758 42.9124 19.7758H20.3635C20.2894 19.7758 20.221 19.8154 20.1841 19.8796Z" stroke="#3F3F3F" stroke-width="3"/>
<path d="M17.1439 24.4144C17.111 24.4605 17.104 24.4943 17.1027 24.5195C17.1011 24.5505 17.108 24.5894 17.1285 24.6292C17.149 24.669 17.1767 24.6972 17.2029 24.7138C17.2241 24.7274 17.2558 24.7413 17.3124 24.7413H45.9635C46.0201 24.7413 46.0517 24.7274 46.073 24.7138C46.0991 24.6972 46.1269 24.669 46.1474 24.6292C46.1679 24.5894 46.1747 24.5505 46.1731 24.5195C46.1718 24.4943 46.1648 24.4605 46.132 24.4144C46.0931 24.3599 46.0304 24.3275 45.9635 24.3275H17.3124C17.2455 24.3275 17.1827 24.3599 17.1439 24.4144Z" stroke="#3F3F3F" stroke-width="3"/>
<path fill-rule="evenodd" clip-rule="evenodd" d="M30.7516 19.4138C29.7162 19.4138 28.9193 18.4994 29.0607 17.4737C29.1772 16.6291 29.8991 16 30.7516 16H33.6622C34.5148 16 35.2366 16.6291 35.3531 17.4737C35.4946 18.4994 34.6976 19.4138 33.6622 19.4138H30.7516Z" fill="#3F3F3F"/>
<line x1="31.4312" y1="30.0172" x2="31.4312" y2="41.8103" stroke="#3F3F3F" stroke-width="3" stroke-linecap="round"/>
<line x1="38.1391" y1="30.1278" x2="37.2312" y2="41.9298" stroke="#3F3F3F" stroke-width="3" stroke-linecap="round"/>
<line x1="26.0446" y1="41.9299" x2="25.1368" y2="30.1279" stroke="#3F3F3F" stroke-width="3" stroke-linecap="round"/>
</svg>
