<svg width="64" height="64" viewBox="0 0 64 64" fill="none" xmlns="http://www.w3.org/2000/svg">
<path d="M36.9778 28.8892C36.9778 28.613 37.2016 28.3892 37.4778 28.3892H45.7552C45.9172 28.3892 46.0692 28.4677 46.163 28.5998L49.7135 33.6032C49.8365 33.7765 49.8365 34.0086 49.7135 34.1819L46.163 39.1853C46.0692 39.3174 45.9172 39.3959 45.7552 39.3959H37.4778C37.2016 39.3959 36.9778 39.1721 36.9778 38.8959V28.8892Z" stroke="#3F3F3F" stroke-width="3"/>
<path d="M14.5 34.9406C14.5 34.6644 14.7239 34.4406 15 34.4406H23.2774C23.4395 34.4406 23.5914 34.5191 23.6852 34.6512L27.2357 39.6546C27.3587 39.8279 27.3587 40.06 27.2357 40.2333L23.6852 45.2367C23.5914 45.3688 23.4395 45.4473 23.2774 45.4473H15C14.7239 45.4473 14.5 45.2234 14.5 44.9473V34.9406Z" stroke="#3F3F3F" stroke-width="3"/>
<path d="M17.2878 20C17.2878 19.7239 17.5117 19.5 17.7878 19.5H26.0653C26.2273 19.5 26.3793 19.5785 26.473 19.7106L30.0236 24.714C30.1466 24.8873 30.1466 25.1194 30.0236 25.2927L26.473 30.2961C26.3793 30.4283 26.2273 30.5068 26.0653 30.5068H17.7878C17.5117 30.5068 17.2878 30.2829 17.2878 30.0068V20Z" stroke="#3F3F3F" stroke-width="3"/>
<path d="M30.7285 24.5365C34.8032 24.5365 31.2379 33.8743 36.3312 33.8743" stroke="#3F3F3F" stroke-width="3"/>
<path d="M27.0068 40.6105C33.798 40.6105 27.8557 34.074 36.3447 34.074" stroke="#3F3F3F" stroke-width="3"/>
</svg>
