<svg width="50" height="50" viewBox="0 0 50 50" fill="none" xmlns="http://www.w3.org/2000/svg">
<path fill-rule="evenodd" clip-rule="evenodd" d="M25 50C38.8071 50 50 38.8071 50 25C50 11.1929 38.8071 0 25 0C11.1929 0 0 11.1929 0 25C0 38.8071 11.1929 50 25 50ZM40.6672 17.1539C41.7367 15.7049 41.429 13.6633 39.98 12.5938C38.5311 11.5243 36.4894 11.8319 35.4199 13.2809L21.2588 32.4669L13.5364 21.493C12.5 20.0202 10.4658 19.6664 8.99304 20.7028C7.52022 21.7392 7.16646 23.7734 8.20288 25.2462L18.529 39.9201C19.1322 40.7773 20.1107 41.2923 21.1588 41.3041C22.207 41.316 23.1969 40.8233 23.8193 39.98L40.6672 17.1539Z" fill="#6C9A8B"/>
</svg>
