<svg width="28" height="28" viewBox="0 0 28 28" fill="none" xmlns="http://www.w3.org/2000/svg">
<rect width="28" height="28" rx="3" fill="white"/>
<path fill-rule="evenodd" clip-rule="evenodd" d="M6.41446 21.6887C5.63341 20.9077 5.63341 19.6414 6.41446 18.8603L18.7575 6.51732C19.5385 5.73627 20.8048 5.73627 21.5859 6.51732C22.3669 7.29836 22.3669 8.56469 21.5859 9.34574L9.24288 21.6888C8.46184 22.4698 7.19551 22.4698 6.41446 21.6887Z" fill="#FE654F"/>
<path fill-rule="evenodd" clip-rule="evenodd" d="M21.5858 21.4829C20.8048 22.2639 19.5385 22.2639 18.7574 21.4829L6.41441 9.13987C5.63336 8.35882 5.63336 7.09249 6.41441 6.31145C7.19546 5.5304 8.46179 5.5304 9.24284 6.31145L21.5858 18.6545C22.3669 19.4355 22.3669 20.7018 21.5858 21.4829Z" fill="#FE654F"/>
</svg>
