<svg width="64" height="64" viewBox="0 0 64 64" fill="none" xmlns="http://www.w3.org/2000/svg">
<mask id="path-1-inside-1_182_1838" fill="white">
<path fill-rule="evenodd" clip-rule="evenodd" d="M47.6691 33.0834C50.2805 33.0834 51.4786 29.8314 49.4915 28.1371L35.4858 16.1953C33.6167 14.6016 30.8668 14.6016 28.9977 16.1953L14.9921 28.137C13.0049 29.8314 14.2031 33.0834 16.8145 33.0834C18.3658 33.0834 19.6234 34.341 19.6234 35.8923V44.9996C19.6234 47.761 21.862 49.9996 24.6234 49.9996H39.8602C42.6216 49.9996 44.8602 47.761 44.8602 44.9996V35.8923C44.8602 34.341 46.1178 33.0834 47.6691 33.0834Z"/>
</mask>
<path d="M49.4915 28.1371L47.5451 30.4199L49.4915 28.1371ZM35.4858 16.1953L33.5394 18.4781L35.4858 16.1953ZM33.5394 18.4781L47.5451 30.4199L51.4379 25.8542L37.4323 13.9124L33.5394 18.4781ZM16.9385 30.4199L30.9441 18.4781L27.0513 13.9124L13.0456 25.8542L16.9385 30.4199ZM22.6234 44.9996V35.8923H16.6234V44.9996H22.6234ZM39.8602 46.9996H24.6234V52.9996H39.8602V46.9996ZM41.8602 35.8923V44.9996H47.8602V35.8923H41.8602ZM47.8602 35.8923C47.8602 35.9978 47.7746 36.0834 47.6691 36.0834V30.0834C44.4609 30.0834 41.8602 32.6841 41.8602 35.8923H47.8602ZM39.8602 52.9996C44.2785 52.9996 47.8602 49.4179 47.8602 44.9996H41.8602C41.8602 46.1042 40.9648 46.9996 39.8602 46.9996V52.9996ZM16.6234 44.9996C16.6234 49.4179 20.2052 52.9996 24.6234 52.9996V46.9996C23.5189 46.9996 22.6234 46.1042 22.6234 44.9996H16.6234ZM16.8145 36.0834C16.709 36.0834 16.6234 35.9978 16.6234 35.8923H22.6234C22.6234 32.6841 20.0227 30.0834 16.8145 30.0834V36.0834ZM13.0456 25.8542C8.93612 29.3581 11.414 36.0834 16.8145 36.0834V30.0834C16.8026 30.0834 16.8167 30.0821 16.8472 30.0921C16.8767 30.1019 16.9061 30.1173 16.9312 30.1358C16.9785 30.1707 16.991 30.2008 16.9938 30.2084C16.9966 30.216 17.0066 30.247 16.9933 30.3042C16.9862 30.3347 16.9738 30.3654 16.9577 30.392C16.941 30.4195 16.9295 30.4276 16.9385 30.4199L13.0456 25.8542ZM47.5451 30.4199C47.5541 30.4276 47.5425 30.4195 47.5259 30.3921C47.5098 30.3655 47.4974 30.3347 47.4903 30.3042C47.477 30.247 47.4869 30.216 47.4897 30.2084C47.4925 30.2008 47.5051 30.1707 47.5523 30.1358C47.5775 30.1173 47.6069 30.1019 47.6364 30.0921C47.6669 30.0821 47.681 30.0834 47.6691 30.0834V36.0834C53.0696 36.0834 55.5474 29.3581 51.4379 25.8542L47.5451 30.4199ZM37.4323 13.9124C34.4417 11.3625 30.0418 11.3625 27.0513 13.9124L30.9441 18.4781C31.6918 17.8406 32.7917 17.8406 33.5394 18.4781L37.4323 13.9124Z" fill="#3F3F3F" mask="url(#path-1-inside-1_182_1838)"/>
</svg>
