<svg width="37" height="35" viewBox="0 0 37 35" fill="none" xmlns="http://www.w3.org/2000/svg">
<mask id="path-1-inside-1_182_1795" fill="white">
<path fill-rule="evenodd" clip-rule="evenodd" d="M33.6691 18.0834C36.2805 18.0834 37.4786 14.8314 35.4915 13.1371L21.4858 1.19526C19.6167 -0.398423 16.8668 -0.398421 14.9977 1.19527L0.992066 13.137C-0.995088 14.8314 0.203105 18.0834 2.81453 18.0834C4.36584 18.0834 5.62344 19.341 5.62344 20.8923V29.9996C5.62344 32.761 7.86201 34.9996 10.6234 34.9996H25.8602C28.6216 34.9996 30.8602 32.761 30.8602 29.9996V20.8923C30.8602 19.341 32.1178 18.0834 33.6691 18.0834Z"/>
</mask>
<path d="M35.4915 13.1371L33.5451 15.4199L35.4915 13.1371ZM21.4858 1.19526L19.5394 3.4781L21.4858 1.19526ZM19.5394 3.4781L33.5451 15.4199L37.4379 10.8542L23.4323 -1.08758L19.5394 3.4781ZM2.93851 15.4199L16.9441 3.47811L13.0513 -1.08757L-0.954376 10.8542L2.93851 15.4199ZM8.62344 29.9996V20.8923H2.62344V29.9996H8.62344ZM25.8602 31.9996H10.6234V37.9996H25.8602V31.9996ZM27.8602 20.8923V29.9996H33.8602V20.8923H27.8602ZM33.8602 20.8923C33.8602 20.9978 33.7746 21.0834 33.6691 21.0834V15.0834C30.4609 15.0834 27.8602 17.6841 27.8602 20.8923H33.8602ZM25.8602 37.9996C30.2785 37.9996 33.8602 34.4179 33.8602 29.9996H27.8602C27.8602 31.1042 26.9648 31.9996 25.8602 31.9996V37.9996ZM2.62344 29.9996C2.62344 34.4179 6.20516 37.9996 10.6234 37.9996V31.9996C9.51887 31.9996 8.62344 31.1042 8.62344 29.9996H2.62344ZM2.81453 21.0834C2.70899 21.0834 2.62344 20.9978 2.62344 20.8923H8.62344C8.62344 17.6841 6.0227 15.0834 2.81453 15.0834V21.0834ZM-0.954376 10.8542C-5.06388 14.3581 -2.58597 21.0834 2.81453 21.0834V15.0834C2.80264 15.0834 2.81672 15.0821 2.84717 15.0921C2.8767 15.1019 2.90611 15.1173 2.93125 15.1358C2.97848 15.1707 2.99105 15.2008 2.99384 15.2084C2.99663 15.216 3.00659 15.247 2.99329 15.3042C2.98621 15.3347 2.9738 15.3654 2.95766 15.392C2.94103 15.4195 2.92946 15.4276 2.93851 15.4199L-0.954376 10.8542ZM33.5451 15.4199C33.5541 15.4276 33.5425 15.4195 33.5259 15.3921C33.5098 15.3655 33.4974 15.3347 33.4903 15.3042C33.477 15.247 33.4869 15.216 33.4897 15.2084C33.4925 15.2008 33.5051 15.1707 33.5523 15.1358C33.5775 15.1173 33.6069 15.1019 33.6364 15.0921C33.6669 15.0821 33.681 15.0834 33.6691 15.0834V21.0834C39.0696 21.0834 41.5474 14.3581 37.4379 10.8542L33.5451 15.4199ZM23.4323 -1.08758C20.4417 -3.63748 16.0418 -3.63747 13.0513 -1.08757L16.9441 3.47811C17.6918 2.84063 18.7917 2.84063 19.5394 3.4781L23.4323 -1.08758Z" fill="#3F3F3F" mask="url(#path-1-inside-1_182_1795)"/>
</svg>
