<svg width="64" height="64" viewBox="0 0 64 64" fill="none" xmlns="http://www.w3.org/2000/svg">
<path d="M23.4142 22.0858C22.6332 21.3047 21.3668 21.3047 20.5858 22.0858C19.8047 22.8668 19.8047 24.1332 20.5858 24.9142L26.9497 31.2782C27.3403 31.6687 27.3403 32.3019 26.9497 32.6924L20.5858 39.0563C19.8047 39.8374 19.8047 41.1037 20.5858 41.8848C21.3668 42.6658 22.6332 42.6658 23.4142 41.8848L31.8995 33.3995C32.6805 32.6184 32.6805 31.3521 31.8995 30.5711L23.4142 22.0858Z" fill="#3F3F3F"/>
<path d="M34.4142 22.0858C33.6332 21.3047 32.3668 21.3047 31.5858 22.0858C30.8047 22.8668 30.8047 24.1332 31.5858 24.9142L37.9497 31.2782C38.3403 31.6687 38.3403 32.3019 37.9497 32.6924L31.5858 39.0563C30.8047 39.8374 30.8047 41.1037 31.5858 41.8848C32.3668 42.6658 33.6332 42.6658 34.4142 41.8848L42.8995 33.3995C43.6805 32.6184 43.6805 31.3521 42.8995 30.5711L34.4142 22.0858Z" fill="#3F3F3F"/>
</svg>
