<svg width="64" height="64" viewBox="0 0 64 64" fill="none" xmlns="http://www.w3.org/2000/svg">
<path d="M17.2308 23.1472C17.1318 22.8256 17.3722 22.5 17.7086 22.5H26.8276C27.047 22.5 27.2409 22.6431 27.3054 22.8528L29.7692 30.8528C29.8682 31.1744 29.6278 31.5 29.2914 31.5H20.1724C19.953 31.5 19.7591 31.3569 19.6946 31.1472L17.2308 23.1472Z" stroke="#3F3F3F" stroke-width="3"/>
<path d="M34.2308 40.1472C34.1318 39.8256 34.3722 39.5 34.7086 39.5H43.8276C44.047 39.5 44.2409 39.6431 44.3054 39.8528L46.7692 47.8528C46.8682 48.1744 46.6278 48.5 46.2914 48.5H37.1724C36.953 48.5 36.7591 48.3569 36.6946 48.1472L34.2308 40.1472Z" stroke="#3F3F3F" stroke-width="3"/>
<path d="M20 31.5C14.5276 35.6277 17.9609 46.2096 30.0001 45.1777" stroke="#3F3F3F" stroke-width="3" stroke-linecap="round"/>
<path fill-rule="evenodd" clip-rule="evenodd" d="M26.8885 40.8765C27.4484 40.266 28.3972 40.2249 29.0078 40.7848L32.9251 44.3771C33.2624 44.6864 33.4401 45.1327 33.4075 45.5892C33.375 46.0457 33.1359 46.4624 32.7582 46.7207L28.3468 49.7381C27.663 50.2058 26.7296 50.0306 26.2619 49.3468C25.7942 48.6631 25.9693 47.7296 26.6531 47.2619L29.505 45.3112L26.9802 42.9959C26.3696 42.436 26.3286 41.4871 26.8885 40.8765Z" fill="#3F3F3F"/>
<path d="M34 21.5H45M39.5 27V16" stroke="#3F3F3F" stroke-width="3" stroke-linecap="round" stroke-linejoin="round"/>
</svg>
