<svg width="203" height="202" viewBox="0 0 203 202" fill="none" xmlns="http://www.w3.org/2000/svg">
<path d="M153.094 159.932C151.649 160.415 150.411 161.59 149.172 162.419C147.452 163.594 145.732 164.769 144.012 165.874C142.498 166.842 140.434 168.5 139.746 170.227C139.402 171.195 139.815 172.577 140.64 173.13C142.911 174.788 145.388 174.995 148.071 175.755C149.034 176.032 149.998 176.446 150.961 176.792C152.888 177.345 154.883 177.345 156.81 177.759C158.392 178.105 159.906 178.45 161.42 178.796C163.759 179.349 166.167 179.418 168.507 179.901C171.947 180.662 175.525 180.869 179.034 181.353C180.204 181.491 181.373 181.905 182.543 181.905C184.332 181.905 186.603 182.044 188.323 181.353C190.456 180.592 192.52 178.865 193.965 177.137C194.928 175.963 195.96 174.995 196.786 173.752C197.336 172.922 197.818 172.162 198.437 171.402C199.538 170.02 200.639 168.569 201.189 166.842C201.671 165.252 201.533 164.699 199.951 163.939C196.786 162.281 193.414 161.935 189.974 161.521C185.983 161.037 181.993 160.139 177.933 159.862C173.323 159.517 168.713 159.586 164.103 159.586C160.869 159.586 156.741 159.033 153.782 160.208L153.094 159.932Z" fill="white"/>
<path d="M127.017 172.715C125.503 170.711 123.026 169.398 121.237 167.671C121.237 167.671 118.691 165.598 118.485 165.391C118.21 165.252 116.421 165.736 116.421 165.736C116.146 165.529 115.87 165.391 115.595 165.321C114.219 164.769 112.843 164.285 111.398 163.801L107.82 162.557L99.2881 159.448L90.8937 161.314L86.9718 162.419C86.0773 162.419 85.1828 162.765 84.2884 162.903C80.5728 163.663 76.8573 164.216 73.1418 165.045C69.2887 165.874 65.6419 167.118 61.8576 168.155C61.6512 168.224 61.5136 168.224 61.3072 168.293L58.5549 166.911C54.8394 166.911 50.8487 165.321 47.2708 164.423C43.0048 163.318 38.67 162.35 34.2664 161.936C31.6518 161.659 29.3812 160.554 26.8354 160.139C25.4593 159.932 24.0144 159.793 22.5694 159.655C21.7438 159.586 20.6429 159.724 19.8172 159.517C18.5787 159.172 17.5466 159.586 16.3081 159.863C14.3815 160.277 11.9045 161.521 10.2532 162.557C8.39541 163.732 6.67526 164.907 4.95512 166.289C3.30377 167.602 -0.686976 169.329 1.79004 171.817C2.82213 172.853 3.92303 173.613 5.16153 174.443C6.95049 175.548 9.08348 175.203 10.8724 176.17C12.7302 177.207 14.5191 177.483 16.5833 177.967C18.8539 178.451 21.0557 179.28 23.3263 179.902C26.4226 180.662 29.7253 180.731 32.8903 181.284C34.7481 181.629 36.6058 181.975 38.5324 182.251L32.0647 184.324C29.5876 185.015 17.1338 190.405 22.2942 193.583C25.3905 195.518 28.6932 197.038 32.2711 197.868C34.4041 198.351 36.6058 199.042 38.8076 199.388C40.8718 199.733 43.1424 200.77 45.2754 200.908C47.546 201.115 49.8854 200.908 52.2248 200.908C54.5642 200.908 54.5642 199.802 56.3531 198.559C58.6925 196.9 61.4448 195.311 63.4402 193.238C64.8851 191.787 65.1603 190.128 67.2933 189.368L72.2473 185.775C72.9354 185.982 73.5546 186.121 74.1739 186.328C75.6188 186.743 77.4766 187.503 78.9903 187.503C81.4673 187.572 83.9443 187.088 86.4213 186.812C89.4488 186.397 92.4763 185.982 95.5037 185.499C99.0128 184.946 102.522 184.117 106.031 183.564C108.921 183.08 111.811 182.251 114.701 181.767C117.109 181.353 119.448 181.007 121.719 180.247C123.164 179.763 124.54 179.487 125.847 178.727C126.604 178.312 127.636 178.036 128.049 177.207C128.462 176.447 128.599 176.378 128.599 175.479C128.668 174.443 127.567 173.406 127.017 172.715Z" fill="white"/>
<path d="M181.03 165.528C180.754 165.528 180.548 165.045 180.617 164.837C180.754 164.285 181.855 164.285 182.268 164.285C182.612 164.285 183.231 164.216 183.231 164.699C183.231 165.045 183.094 165.321 182.75 165.459" stroke="#FE654F" stroke-width="2" stroke-linecap="round"/>
<path d="M181.236 166.22C181.029 166.358 180.961 166.634 180.823 166.842C180.685 167.049 180.479 167.394 180.548 167.602C180.754 168.155 181.374 168.155 181.855 168.155C182.474 168.155 183.162 168.085 183.094 167.325C183.025 166.911 182.956 166.22 182.681 165.943" stroke="#FE654F" stroke-width="2" stroke-linecap="round"/>
<path d="M182.061 169.191C181.993 169.813 181.924 170.504 181.924 171.126" stroke="#393939" stroke-width="2" stroke-linecap="round"/>
<path d="M127.018 52.7569C126.88 55.6591 124.128 64.2966 124.128 64.2966C123.302 67.6134 121.513 70.723 119.518 73.5561C117.247 76.7347 114.082 78.5313 110.711 80.3279C109.128 81.1571 107.271 81.9863 105.482 82.3318C104.037 82.6082 102.523 82.9537 101.147 83.3683C98.1194 84.2666 94.1286 84.0593 91.17 83.2992C87.9361 82.47 84.8398 80.8807 82.294 78.8768C79.6794 76.8729 76.8584 74.5926 75.551 71.5522C75.1382 70.5848 74.4501 69.7556 73.9685 68.7882C73.5557 68.0281 73.2804 67.1297 72.8676 66.3696C72.0419 64.573 71.5603 62.5 70.941 60.5652C69.7025 56.9029 68.464 53.2406 68.464 49.371C66.0558 45.5014 67.5695 27.328 67.5695 27.328C65.299 26.2224 61.5146 19.7961 61.5146 19.7961C58.6936 18.8287 65.0925 11.0204 70.5282 8.11815C75.9639 5.21594 83.6701 0.931725 94.6791 1.00083C105.688 1.06993 112.431 2.79743 120.825 7.08165C129.22 11.3659 131.353 15.0973 133.692 18.2068C136.031 21.3854 137.683 28.1572 136.375 30.2302C135.137 32.3032 132.866 34.5144 132.866 34.929C132.866 34.929 129.633 39.2824 129.288 40.8717" fill="white"/>
<path d="M69.082 28.71C69.1508 30.9903 69.8389 32.7869 71.8343 32.856Z" fill="white"/>
<path d="M58.6924 26.6367C59.174 28.5715 59.3116 32.1647 61.5134 33.063C63.7152 33.9613 65.7106 34.2377 67.0179 34.2377" fill="white"/>
<path d="M46.3076 27.3281C46.3076 30.5067 46.4452 32.6488 50.2984 34.3763C54.1515 36.1039 58.6239 37.8314 61.8578 37.6932C65.0228 37.6241 65.3669 36.9331 65.6421 36.4494" fill="white"/>
<path d="M72.592 45.087C72.8672 50.0622 77.3396 52.6189 80.5047 52.2734C83.6697 51.9279 87.4541 50.1313 87.3165 43.6359C87.1788 37.1405 83.4633 35.2057 80.3671 34.9984C77.2708 34.7911 72.248 38.3152 72.592 45.087Z" fill="white"/>
<path d="M95.9166 40.8716C96.1918 48.2654 100.045 51.7895 104.793 51.6513C109.54 51.5131 112.086 47.7126 113.393 45.4323C114.701 43.152 114.769 42.1155 115.045 40.0424C115.251 37.9694 114.013 34.238 110.916 31.9577C107.82 29.6774 105.549 28.6409 102.316 30.0229C98.9441 31.4049 95.7102 35.62 95.9166 40.8716Z" fill="white"/>
<path d="M87.3164 47.0902L96.6052 45.7773Z" fill="white"/>
<path d="M92.9581 51.2363C89.793 51.5818 86.8344 51.72 87.1096 54.2076C87.3848 56.4188 88.8298 56.6952 93.1645 56.9716" fill="white"/>
<path d="M125.09 41.8393C125.228 40.8719 125.641 39.7663 127.499 39.9736C129.288 40.1809 131.558 43.1522 131.077 46.9527C130.595 50.7532 128.187 53.1026 127.086 52.7571C126.054 52.4116 124.402 51.306 124.402 51.306" fill="white"/>
<path d="M88.5547 74.5925C89.518 72.3122 90.2748 69.8937 91.995 68.0971C93.7839 66.2314 96.7426 65.4713 99.082 64.8494C100.252 64.5039 106.238 62.2927 107.201 64.2966" fill="white"/>
<path d="M85.5957 92.904C88.3479 90.6928 91.3754 88.8271 94.4717 87.0305C95.2973 86.5468 95.8478 86.6159 96.8111 86.8923C97.4991 87.0996 98.3936 87.7906 98.8752 88.1361C99.4945 88.6198 100.045 89.1035 100.664 89.5872C100.871 89.7254 101.49 90.0709 101.421 90.4164C101.283 90.9692 101.215 91.3147 101.215 91.8675" stroke="#262626" stroke-width="0.5" stroke-linecap="round"/>
<path d="M91.1006 97.0499C92.1327 95.9443 93.2336 94.9078 94.4033 94.0095C95.0913 93.4567 95.7794 92.4893 96.6051 92.2129" stroke="#262626" stroke-width="0.5" stroke-linecap="round"/>
<path d="M84.9079 93.5957C83.9446 94.9086 82.9126 96.3597 82.8438 98.0181C82.8438 98.5018 83.2566 99.1237 83.463 99.5383C83.6006 99.7456 84.2887 100.506 83.807 100.506" stroke="#262626" stroke-width="0.5" stroke-linecap="round"/>
<path d="M95.917 92.8355C97.0179 92.8355 98.3252 92.49 99.3573 92.2827C100.045 92.1445 100.596 92.2827 101.215 92.5591C102.11 92.9046 103.073 93.8029 103.898 94.4248C104.38 94.7703 104.105 95.1849 104.105 95.7377" stroke="#262626" stroke-width="0.5" stroke-linecap="round"/>
<path d="M97.293 100.505C97.4994 100.436 97.9122 99.6758 98.1186 99.4685C99.1507 98.6393 100.252 98.0174 101.353 97.3264C102.316 96.7045 103.348 96.359 104.242 95.7371C104.793 95.3916 107.545 96.4972 107.545 97.6719" stroke="#262626" stroke-width="0.5" stroke-linecap="round"/>
<path d="M100.733 104.79C100.871 104.168 102.041 103.753 102.454 103.546C103.554 102.924 104.655 102.164 105.894 101.611C106.995 101.127 108.027 100.298 109.128 99.9526C110.022 99.6762 110.985 100.091 111.811 100.436C112.362 100.713 112.293 101.404 112.43 101.957C112.568 102.578 109.472 104.237 108.921 104.721C108.371 105.204 109.265 104.79 108.715 104.997C108.096 105.204 107.614 105.481 107.064 105.826C106.788 106.033 106.582 106.517 105.963 106.794" stroke="#262626" stroke-width="0.5" stroke-linecap="round"/>
<path d="M77.615 103.269C77.615 102.855 77.4086 102.44 77.4086 102.026C77.271 100.713 77.3398 99.469 77.4086 98.1561C77.4086 97.3269 77.2022 96.0831 77.5462 95.323C77.7527 94.7702 77.8214 94.632 77.7526 94.0792C77.5462 93.0427 76.0325 92.4208 75.9637 91.3151C75.8949 89.5185 77.8215 89.173 79.1976 89.5185C80.6425 89.8641 81.3994 91.1769 82.5003 92.0062C83.3947 92.6972 83.5324 93.8719 84.2204 94.7011" stroke="#262626" stroke-width="0.5" stroke-linecap="round"/>
<path d="M83.5315 100.505C83.4627 101.818 82.5682 103.269 82.0178 104.444C81.3297 105.964 80.9169 107.484 80.7793 109.143C80.7105 109.834 81.0545 109.488 81.5361 109.696C81.7425 109.765 82.7058 110.179 82.637 110.249" stroke="#262626" stroke-width="0.5" stroke-linecap="round"/>
<path d="M77.3389 106.033C77.7517 106.517 78.3022 106.932 78.371 107.484C78.4398 107.692 78.5774 107.968 78.715 108.106" stroke="#262626" stroke-width="0.5" stroke-linecap="round"/>
<path d="M106.926 108.797C106.582 109.765 106.513 110.732 106.169 111.7C105.687 113.427 104.793 114.947 103.692 116.329C102.729 117.504 100.871 119.853 99.2195 119.992C98.4626 120.061 97.7058 120.199 96.8801 120.475C96.6049 120.544 95.7792 120.406 95.2288 120.406C94.8159 120.406 94.4031 120.406 94.0591 120.406C93.8526 120.406 93.715 120.544 93.9214 120.406" stroke="#262626" stroke-width="0.5" stroke-linecap="round"/>
<path d="M77.1327 111.906C75.7566 112.044 75.6878 114.117 75.8254 115.085C76.1006 116.536 76.7199 117.987 77.2704 119.369C78.1648 121.58 78.9905 123.722 80.573 125.588C81.9491 127.247 84.3574 130.287 86.9032 130.08C87.316 130.08 88.8297 130.011 88.9674 129.734L88.3481 132.429C86.6968 135.193 85.4583 138.095 83.6693 140.859C81.7427 143.831 79.9538 146.802 77.3392 149.22C74.7245 151.708 71.5595 153.643 68.9448 156.269C67.8439 157.374 67.7063 159.033 66.6054 159.724C64.8165 160.829 62.0642 161.106 60.0689 160.346C58.0047 159.516 57.5919 157.443 55.1836 157.443C53.2571 157.443 51.4681 158.273 49.6792 158.756C46.3077 159.655 42.7986 159.447 39.4271 158.964C36.3308 158.549 32.1337 158.134 30.0695 155.37C28.6934 153.505 28.831 150.948 28.831 148.737C28.831 147.424 29.3814 143.07 30.964 141.619C36.3996 136.713 41.8353 132.222 47.8902 128.007C52.7066 124.69 57.6607 121.649 62.7523 118.747C65.711 117.02 68.876 114.739 72.1787 113.703L77.1327 111.906Z" fill="white"/>
<path d="M92.1326 120.682C90.5501 120.959 89.1739 122.271 87.8666 122.962C86.4905 123.723 85.1144 124.344 83.7383 125.105C83.5319 125.243 81.1924 126.279 81.2613 126.625C81.3301 126.97 81.8805 126.348 82.0869 126.141" stroke="#262626" stroke-width="0.5" stroke-linecap="round"/>
<path d="M84.2199 80.1895L117.522 75.7671C117.522 75.7671 140.641 79.4985 145.044 83.1608C149.448 86.754 166.443 143.831 166.443 143.831H31.377L32.6155 135.953C34.8861 130.287 38.1887 125.727 41.8355 120.82C46.5143 114.532 49.2665 106.931 54.8398 101.265C58.5553 97.4646 62.8901 94.0786 67.5001 91.7983L84.2199 80.1895Z" fill="white"/>
<path d="M95.8477 153.367C93.6459 153.367 91.6505 155.509 91.6505 156.96C91.6505 158.411 91.0312 159.793 91.0312 161.244C91.0312 161.935 91.5129 162.903 91.9945 161.797L93.3706 159.309" fill="white"/>
<path d="M104.586 157.375C104.242 159.379 104.379 161.244 105.893 162.765H106.512C108.989 162.765 107.889 162.004 108.714 160.484C109.196 159.586 111.329 158.204 112.361 158.204L110.09 159.448C113.393 159.448 116.352 162.074 119.93 160.899C121.787 160.277 122.613 159.793 123.714 158.135C124.54 157.72 126.535 157.306 126.948 156.476L134.929 154.473L133.828 149.359L126.879 147.424L123.301 149.014C121.787 149.014 120.274 149.359 118.76 149.636C117.177 149.981 115.526 150.948 113.943 150.948C111.948 149.221 111.398 150.05 109.471 150.05L109.54 150.119L109.058 149.705C108.714 149.497 108.301 149.359 107.889 149.221C107.269 149.014 106.788 148.392 106.168 148.392C104.517 148.323 102.728 149.152 101.696 150.327L99.4254 152.33C97.3612 152.607 94.953 152.883 94.265 155.233C93.9897 156.2 92.6824 161.797 93.9209 162.419C95.5035 162.419 95.5723 162.143 95.5723 160.761C95.5723 160.761 95.9851 156.753 96.742 156.407C97.4988 156.131 99.3566 155.647 99.3566 155.647C98.3245 157.582 97.8429 160.07 98.3933 162.212C98.4621 162.488 98.8062 163.11 99.1502 163.317C100.32 163.179 100.802 162.281 100.802 161.037C101.008 159.793 101.421 157.306 102.59 156.822C103.76 156.338 104.586 157.375 104.586 157.375Z" fill="white"/>
<path d="M143.875 82.1934C142.911 82.5389 144.15 82.4007 144.632 82.608C145.251 82.8153 148.966 83.99 148.347 84.681C148.072 85.0265 149.173 84.9574 149.586 85.0956C151.099 85.5793 152.475 86.4085 153.852 87.1686C157.361 89.1725 160.663 91.5219 163.622 94.355C166.993 97.6027 169.815 101.334 172.636 105.066C175.044 108.175 177.521 111.285 179.585 114.67C182.337 119.162 185.021 124.206 186.259 129.389C186.466 130.287 186.053 130.84 185.915 131.669C185.296 134.779 184.677 138.026 182.544 140.514C180.411 143.002 177.383 144.66 174.7 146.457C172.911 147.631 171.191 148.875 169.47 150.188C168.92 150.603 168.026 151.501 167.337 151.501H168.163C160.319 156.269 150.962 157.098 142.223 159.447C140.228 160 138.164 160.553 136.168 161.175C135.48 161.382 135.136 161.728 134.379 161.728L134.999 161.313C134.655 161.451 134.242 161.728 133.829 161.728C133.072 161.728 133.485 161.037 133.76 160.622C134.379 159.724 134.861 158.687 135.068 157.582C135.687 154.265 133.967 151.985 131.421 150.05C129.907 148.944 127.43 147.148 125.435 146.94L124.815 145.075C128.049 142.034 132.935 140.376 137.063 138.925C144.288 136.299 151.719 136.299 159.218 135.124" fill="white"/>
<path d="M61.4453 19.7961C58.6242 18.8287 65.0232 11.0204 70.4589 8.11815C75.8945 5.21594 83.6008 0.931725 94.6097 1.00083C105.619 1.06993 112.362 2.79743 120.756 7.08165C129.15 11.3659 131.283 15.0973 133.623 18.2068C135.962 21.3854 137.613 28.1572 136.306 30.2302C135.068 32.3032 132.797 34.5144 132.797 34.929" stroke="#262626" stroke-width="2" stroke-linecap="round" stroke-linejoin="round"/>
<path d="M69.082 28.71C69.1508 30.9903 69.8389 32.7869 71.8343 32.856" stroke="#262626" stroke-width="2" stroke-linecap="round" stroke-linejoin="round"/>
<path d="M58.6924 26.6367C59.174 28.5715 59.3116 32.1647 61.5134 33.063C63.7152 33.9613 65.7106 34.2377 67.0179 34.2377" stroke="#262626" stroke-width="2" stroke-linecap="round" stroke-linejoin="round"/>
<path d="M46.3066 27.3281C46.3066 30.5067 46.4442 32.6488 50.2974 34.3763C54.1505 36.1039 58.6229 37.8314 61.8568 37.6932C65.0219 37.6241 65.3659 36.9331 65.6411 36.4494" stroke="#262626" stroke-width="2" stroke-linecap="round" stroke-linejoin="round"/>
<path d="M72.591 45.087C72.8662 50.0622 77.3386 52.6189 80.5037 52.2734C83.6687 51.9279 87.4531 50.1313 87.3155 43.6359C87.1779 37.1405 83.4623 35.2057 80.3661 34.9984C77.2698 34.7911 72.247 38.3152 72.591 45.087Z" stroke="#262626" stroke-width="2" stroke-linecap="round" stroke-linejoin="round"/>
<path d="M95.9156 40.8716C96.1909 48.2654 100.044 51.7895 104.792 51.6513C109.539 51.5131 112.085 47.7126 113.392 45.4323C114.7 43.152 114.768 42.1155 115.044 40.0424C115.25 37.9694 114.012 34.238 110.915 31.9577C107.819 29.6774 105.548 28.6409 102.315 30.0229C98.9431 31.4049 95.7092 35.62 95.9156 40.8716Z" stroke="#262626" stroke-width="2" stroke-linecap="round" stroke-linejoin="round"/>
<path d="M79.6787 46.0542V46.3306" stroke="#262626" stroke-width="2" stroke-linecap="round" stroke-linejoin="round"/>
<path d="M105 43.2212V43.4285" stroke="#262626" stroke-width="2" stroke-linecap="round" stroke-linejoin="round"/>
<path d="M87.3154 47.0902L96.6042 45.7773" stroke="#262626" stroke-width="2" stroke-linecap="round" stroke-linejoin="round"/>
<path d="M92.9581 51.2363C89.793 51.5818 86.8344 51.72 87.1096 54.2076C87.3848 56.4188 88.8298 56.6952 93.1645 56.9716" stroke="#262626" stroke-width="2" stroke-linecap="round" stroke-linejoin="round"/>
<path d="M125.09 41.8393C125.228 40.8719 125.641 39.7663 127.499 39.9736C129.288 40.1809 131.558 43.1522 131.077 46.9527C130.595 50.7532 128.187 53.1026 127.086 52.7571C126.054 52.4116 124.402 51.306 124.402 51.306" stroke="#262626" stroke-width="2" stroke-linecap="round" stroke-linejoin="round"/>
<path d="M88.5547 74.5925C89.518 72.3122 90.2748 69.8937 91.995 68.0971C93.7839 66.2314 96.7426 65.4713 99.082 64.8494C100.252 64.5039 106.238 62.2927 107.201 64.2966" stroke="#262626" stroke-width="2" stroke-linecap="round"/>
<path d="M68.3945 49.3711C68.3945 53.2407 69.633 56.903 70.8715 60.5653C71.4908 62.431 71.9724 64.5731 72.7981 66.3697C73.1421 67.199 73.4174 68.0282 73.899 68.7883C74.4495 69.6866 75.0687 70.5158 75.4815 71.5523C76.7889 74.5236 79.6787 76.873 82.2245 78.8769C84.8391 80.8808 87.8666 82.4701 91.1005 83.2993C94.128 84.0594 98.1187 84.2667 101.077 83.3684C102.453 82.9538 103.967 82.6083 105.412 82.3319C107.201 82.0555 109.059 81.1572 110.641 80.328C114.082 78.5314 117.247 76.7348 119.449 73.5562C121.444 70.7231 123.164 67.6136 124.059 64.2967" stroke="#262626" stroke-width="2" stroke-linecap="round"/>
<path d="M72.1094 113.565C68.8067 114.602 65.6416 116.882 62.683 118.61C57.5913 121.512 52.6373 124.552 47.8209 127.869C41.8348 132.015 36.3303 136.576 30.8946 141.482C29.3121 142.933 28.7616 147.286 28.7616 148.599C28.7616 150.81 28.624 153.298 30.0001 155.233C32.0643 158.066 36.2615 158.411 39.3577 158.826C42.7292 159.31 46.2383 159.586 49.6098 158.619C51.4676 158.135 53.2565 157.306 55.1143 157.306C57.5225 157.306 57.9354 159.379 59.9995 160.208C61.9949 160.968 64.7471 160.692 66.5361 159.586C67.637 158.895 67.7746 157.237 68.8755 156.131C71.4901 153.574 74.5864 151.64 77.2698 149.083C79.8845 146.595 81.6046 143.624 83.6 140.722C85.3889 138.027 86.6274 135.056 88.2788 132.292" stroke="#262626" stroke-width="2" stroke-linecap="round"/>
<path d="M85.5938 92.904C88.346 90.6928 91.3734 88.8271 94.4697 87.0305C95.2954 86.5468 95.8458 86.6159 96.8091 86.8923C97.4972 87.0996 98.3916 87.7906 98.8733 88.1361C99.4925 88.6198 100.043 89.1035 100.662 89.5872C100.869 89.7254 101.488 90.0709 101.419 90.4164C101.281 90.9692 101.213 91.3147 101.213 91.8675" stroke="#262626" stroke-width="2" stroke-linecap="round"/>
<path d="M91.1006 97.0499C92.1327 95.9443 93.2336 94.9078 94.4033 94.0095C95.0913 93.4567 95.7794 92.4893 96.6051 92.2129" stroke="#262626" stroke-width="2" stroke-linecap="round"/>
<path d="M84.9079 93.5957C83.9446 94.9086 82.9126 96.3597 82.8438 98.0181C82.8438 98.5018 83.2566 99.1237 83.463 99.5383C83.6006 99.7456 84.2887 100.506 83.807 100.506" stroke="#262626" stroke-width="2" stroke-linecap="round"/>
<path d="M95.916 92.8355C97.0169 92.8355 98.3242 92.49 99.3563 92.2827C100.044 92.1445 100.595 92.2827 101.214 92.5591C102.109 92.9046 103.072 93.8029 103.897 94.4248C104.379 94.7703 104.104 95.1849 104.104 95.7377" stroke="#262626" stroke-width="2" stroke-linecap="round"/>
<path d="M97.293 100.505C97.4994 100.436 97.9122 99.6758 98.1186 99.4685C99.1507 98.6393 100.252 98.0174 101.353 97.3264C102.316 96.7045 103.348 96.359 104.242 95.7371C104.793 95.3916 107.545 96.4972 107.545 97.6719" stroke="#262626" stroke-width="2" stroke-linecap="round"/>
<path d="M100.732 104.79C100.87 104.168 102.04 103.753 102.453 103.546C103.553 102.924 104.654 102.164 105.893 101.611C106.994 101.127 108.026 100.298 109.127 99.9526C110.021 99.6762 110.984 100.091 111.81 100.436C112.361 100.713 112.292 101.404 112.429 101.957C112.567 102.578 109.471 104.237 108.92 104.721C108.37 105.204 109.264 104.79 108.714 104.997C108.095 105.204 107.613 105.481 107.063 105.826C106.787 106.033 106.581 106.517 105.962 106.794" stroke="#262626" stroke-width="2" stroke-linecap="round"/>
<path d="M77.6141 103.269C77.6141 102.855 77.4076 102.44 77.4076 102.026C77.27 100.713 77.3388 99.469 77.4076 98.1561C77.4076 97.3269 77.2012 96.0831 77.5453 95.323C77.7517 94.7702 77.8205 94.632 77.7517 94.0792C77.5452 93.0427 76.0315 92.4208 75.9627 91.3151C75.8939 89.5185 77.8205 89.173 79.1966 89.5185C80.6415 89.8641 81.3984 91.1769 82.4993 92.0062C83.3938 92.6972 83.5314 93.8719 84.2194 94.7011" stroke="#262626" stroke-width="2" stroke-linecap="round"/>
<path d="M83.5305 100.505C83.4617 101.818 82.5672 103.269 82.0168 104.444C81.3287 105.964 80.9159 107.484 80.7783 109.143C80.7095 109.834 81.0535 109.488 81.5351 109.696C81.7416 109.765 82.7048 110.179 82.636 110.249" stroke="#262626" stroke-width="2" stroke-linecap="round"/>
<path d="M77.3379 106.033C77.7507 106.517 78.3012 106.932 78.37 107.484C78.4388 107.692 78.5764 107.968 78.714 108.106" stroke="#262626" stroke-width="2" stroke-linecap="round"/>
<path d="M106.925 108.797C106.581 109.765 106.512 110.732 106.168 111.7C105.686 113.427 104.792 114.947 103.691 116.329C102.728 117.504 100.87 119.853 99.2185 119.992C98.4617 120.061 97.7048 120.199 96.8791 120.475C96.6039 120.544 95.7782 120.406 95.2278 120.406C94.815 120.406 94.4021 120.406 94.0581 120.406C93.8517 120.406 93.714 120.544 93.9205 120.406" stroke="#262626" stroke-width="2" stroke-linecap="round"/>
<path d="M77.1319 111.906C75.7558 112.044 75.687 114.117 75.8246 115.085C76.0998 116.536 76.7191 117.987 77.2695 119.369C78.164 121.58 78.9897 123.722 80.5722 125.588C81.9483 127.247 84.3565 130.287 86.9024 130.08C87.3152 130.08 88.8289 130.011 88.9665 129.734" stroke="#262626" stroke-width="2" stroke-linecap="round"/>
<path d="M92.1307 120.682C90.5481 120.959 89.172 122.271 87.8647 122.962C86.4886 123.723 85.1124 124.344 83.7363 125.105C83.5299 125.243 81.1905 126.279 81.2593 126.625C81.3281 126.97 81.8786 126.348 82.085 126.141" stroke="#262626" stroke-width="2" stroke-linecap="round"/>
<path d="M32.6143 136.023C34.8849 130.356 38.1875 125.796 41.8343 120.89C46.5131 114.602 49.2653 107.001 54.8386 101.334C58.5541 97.5339 62.8889 94.148 67.4989 91.8677" stroke="#262626" stroke-width="2" stroke-linecap="round"/>
<path d="M95.8467 153.367C93.6449 153.367 91.6495 155.509 91.6495 156.96C91.6495 158.411 91.0303 159.793 91.0303 161.244C91.0303 161.935 91.5119 162.903 91.9936 161.797" stroke="#262626" stroke-width="2" stroke-linecap="round"/>
<path d="M99.4254 152.33C97.3612 152.606 94.953 152.883 94.265 155.232C93.9897 156.2 92.6824 161.797 93.9209 162.419" stroke="#262626" stroke-width="2" stroke-linecap="round"/>
<path d="M104.93 153.643C102.728 152.606 100.733 153.021 99.494 155.37C98.4619 157.305 97.8427 160.138 98.3243 162.28C98.3931 162.695 99.0812 163.732 99.4252 163.386" stroke="#262626" stroke-width="2" stroke-linecap="round"/>
<path d="M109.127 154.265C107.132 154.265 105.068 154.334 104.655 156.822C104.311 158.826 104.379 161.244 105.893 162.764" stroke="#262626" stroke-width="2" stroke-linecap="round"/>
<path d="M106.512 162.695C108.989 162.695 107.888 161.935 108.713 160.415C109.195 159.517 111.328 158.135 112.36 158.135" stroke="#262626" stroke-width="2" stroke-linecap="round"/>
<path d="M98.7373 163.386C100.113 163.386 100.664 162.419 100.664 161.106" stroke="#262626" stroke-width="2" stroke-linecap="round"/>
<path d="M93.9209 163.041C95.5034 163.041 95.5723 162.143 95.5723 160.761" stroke="#262626" stroke-width="2" stroke-linecap="round"/>
<path d="M104.93 151.294C106.856 151.294 112.636 148.253 114.012 150.948" stroke="#262626" stroke-width="2" stroke-linecap="round"/>
<path d="M110.09 159.378C113.393 159.378 116.351 162.004 119.929 160.829C121.787 160.208 122.613 159.724 123.713 158.065" stroke="#262626" stroke-width="2" stroke-linecap="round"/>
<path d="M113.943 150.948C115.595 150.948 117.177 149.981 118.76 149.636C120.274 149.359 121.787 149.014 123.301 149.014" stroke="#262626" stroke-width="2" stroke-linecap="round"/>
<path d="M123.646 158.066C124.471 157.651 126.467 157.236 126.879 156.407" stroke="#262626" stroke-width="2" stroke-linecap="round"/>
<path d="M101.696 150.327C102.797 149.152 104.586 148.323 106.169 148.392C106.788 148.392 107.27 149.083 107.889 149.221C108.302 149.359 108.714 149.428 109.059 149.705" stroke="#262626" stroke-width="2" stroke-linecap="round"/>
<path d="M125.434 147.078C127.429 147.286 129.906 149.082 131.42 150.188C133.966 152.054 135.686 154.334 135.067 157.72C134.86 158.825 134.378 159.793 133.759 160.76C133.484 161.175 133.002 161.866 133.828 161.866C134.241 161.866 134.654 161.59 134.998 161.451M134.378 161.797C135.135 161.797 135.479 161.52 136.167 161.244C138.163 160.622 140.158 160.069 142.222 159.516C150.961 157.167 160.25 156.269 168.162 151.57M124.814 145.213C128.048 142.172 132.934 140.514 137.062 139.063C144.287 136.437 151.718 136.437 159.217 135.262M167.268 151.639C168.025 151.639 168.85 150.741 169.401 150.326C171.121 149.013 172.841 147.769 174.63 146.595C177.313 144.729 180.272 143.14 182.474 140.652C184.676 138.095 185.226 134.917 185.845 131.807C185.983 130.978 186.465 130.425 186.189 129.527C184.951 124.344 182.267 119.3 179.515 114.809C177.451 111.423 174.974 108.382 172.566 105.204C169.745 101.472 166.924 97.81 163.552 94.4932C160.662 91.6601 157.291 89.3107 153.782 87.3068C152.406 86.5467 151.03 85.7175 149.516 85.2338C149.103 85.0956 148.002 85.0956 148.277 84.8192C148.897 84.1282 145.181 82.8843 144.562 82.7461C144.08 82.6079 142.842 82.7461 143.805 82.3315" stroke="#262626" stroke-width="2" stroke-linecap="round"/>
<path d="M87.1089 162.419C86.2144 162.419 85.3199 162.764 84.4255 162.903C80.7099 163.663 76.9944 164.216 73.2789 165.045C69.4258 165.874 65.779 167.118 61.9947 168.154C60.481 168.569 58.9673 168.707 57.5223 169.191C57.4535 169.191 56.3526 169.605 56.4214 169.674C56.4902 169.744 56.7655 169.467 56.7655 169.674C56.7655 169.951 56.6967 170.089 56.4902 170.296C55.527 171.126 56.6967 172.3 57.3847 172.646C58.1416 172.991 58.9673 173.406 59.6553 173.89C62.2011 175.755 65.2974 176.999 68.0496 178.45C72.3844 180.592 76.2375 182.182 80.9852 181.007C82.8429 180.523 84.7007 179.763 86.5584 179.279C91.0308 178.174 95.572 177.621 100.044 176.515C105.686 175.133 111.191 173.268 116.764 171.747C118.072 171.402 119.241 170.089 118.966 168.569C118.76 167.256 116.902 165.805 115.732 165.39C114.356 164.837 112.98 164.354 111.535 163.87" stroke="#262626" stroke-width="2" stroke-linecap="round"/>
<path d="M58.6921 166.841C54.9766 166.841 50.9858 165.252 47.4079 164.354C43.142 163.248 38.8072 162.281 34.4036 161.866C31.789 161.59 29.5184 160.484 26.9038 160.07C25.5276 159.862 24.0827 159.724 22.6378 159.586C21.8121 159.517 20.7112 159.655 19.8855 159.448C18.647 159.102 17.615 159.517 16.3765 159.793C14.4499 160.208 11.9729 161.452 10.3215 162.488C8.46377 163.663 6.74362 164.838 5.02347 166.22C3.37213 167.532 -0.618617 169.26 1.8584 171.748C2.89049 172.784 3.99138 173.544 5.22988 174.373C7.01884 175.479 9.15182 175.133 10.9408 176.101C12.7985 177.137 14.5875 177.414 16.6517 177.897C18.9223 178.381 21.1241 179.21 23.3947 179.832C26.4909 180.592 29.7936 180.661 32.9587 181.214C36.4678 181.836 40.0457 182.389 43.5548 183.011C45.6878 183.356 47.752 183.356 49.8849 183.633C51.4675 183.84 52.7748 183.218 53.8757 182.113C54.2885 181.698 54.6325 181.283 55.1142 180.938C55.7334 180.523 56.0087 179.763 56.4903 179.21C56.9031 178.796 57.7288 178.105 57.8664 177.621" stroke="#262626" stroke-width="2" stroke-linecap="round"/>
<path d="M67.4993 180.247C66.6048 180.316 63.8526 181.767 65.2975 182.873C67.7745 184.669 71.3524 185.291 74.1735 186.051C75.6184 186.466 77.4761 187.226 78.9899 187.226C81.4669 187.295 83.9439 186.811 86.4209 186.535C89.4484 186.12 92.4758 185.706 95.5033 185.222C99.0124 184.669 102.521 183.84 106.031 183.287C108.92 182.804 111.81 181.974 114.7 181.491C117.108 181.076 119.448 180.731 121.718 179.971C123.163 179.487 124.539 179.21 125.847 178.45C126.604 178.036 127.636 177.759 128.048 176.93C128.461 176.17 128.599 176.101 128.599 175.203C128.599 174.235 127.498 173.199 126.948 172.508C125.434 170.504 122.957 169.191 121.168 167.463" stroke="#262626" stroke-width="2" stroke-linecap="round"/>
<path d="M153.094 159.932C151.649 160.415 150.411 161.59 149.172 162.419C147.452 163.594 145.732 164.769 144.012 165.874C142.498 166.842 140.434 168.5 139.746 170.227C139.402 171.195 139.815 172.577 140.64 173.13C142.911 174.788 145.388 174.995 148.071 175.755C149.034 176.032 149.998 176.446 150.961 176.792C152.888 177.345 154.883 177.345 156.81 177.759C158.392 178.105 159.906 178.45 161.42 178.796C163.759 179.349 166.167 179.418 168.507 179.901C171.947 180.662 175.525 180.869 179.034 181.353C180.204 181.491 181.373 181.905 182.543 181.905C184.332 181.905 186.603 182.044 188.323 181.353C190.456 180.592 192.52 178.865 193.965 177.137C194.928 175.963 195.96 174.995 196.786 173.752C197.336 172.922 197.818 172.162 198.437 171.402C199.538 170.02 200.639 168.569 201.189 166.842C201.671 165.252 201.533 164.699 199.951 163.939C196.786 162.281 193.414 161.935 189.974 161.521C185.983 161.037 181.993 160.139 177.933 159.862C173.323 159.517 168.713 159.586 164.103 159.586C160.869 159.586 156.741 159.033 153.782 160.208" stroke="#262626" stroke-width="2" stroke-linecap="round"/>
<path d="M32.1338 184.047C29.6567 184.738 17.2029 190.128 22.3633 193.307C25.4596 195.242 28.7623 196.762 32.3402 197.591C34.4732 198.075 36.675 198.766 38.8767 199.111C40.9409 199.457 43.2115 200.493 45.3445 200.631C47.6151 200.839 49.9545 200.631 52.2939 200.631C54.6333 200.631 54.6333 199.526 56.4223 198.282C58.7617 196.624 61.5139 195.034 63.5093 192.961C64.9542 191.51 65.2294 189.852 67.3624 189.092" stroke="#262626" stroke-width="2" stroke-linecap="round"/>
<path d="M21.5371 164.976C20.9179 164.976 19.8858 164.699 20.7803 164.008C21.5371 163.455 22.3628 163.524 23.2573 163.386C24.2206 163.248 24.2894 163.663 24.2894 164.423C24.2894 164.976 23.9453 165.114 23.4637 165.252" stroke="#FE654F" stroke-width="2" stroke-linecap="round"/>
<path d="M21.7436 165.598C21.7436 166.565 21.0555 168.431 22.6381 168.362C23.1197 168.362 23.8766 168.223 23.8766 167.532C23.8766 166.98 23.2573 166.289 23.0509 165.736" stroke="#FE654F" stroke-width="2" stroke-linecap="round"/>
<path d="M45.0691 187.503C44.5875 187.503 43.9682 187.226 44.1746 186.604C44.4498 185.775 45.9636 185.913 46.6516 185.913C47.2709 185.913 48.4406 185.706 48.4406 186.604C48.4406 187.088 47.2021 187.364 46.858 187.503" stroke="#FE654F" stroke-width="2" stroke-linecap="round"/>
<path d="M45.1374 187.779C45.1374 188.193 44.8622 188.677 44.7934 189.091C44.7246 189.575 44.7934 189.437 45.0686 189.713C45.4126 190.059 45.8943 189.99 46.4447 189.99C47.1328 189.99 47.408 190.059 47.408 189.299C47.408 188.953 47.3392 188.746 47.1328 188.47C46.9952 188.331 46.5135 187.848 46.7888 187.709" stroke="#FE654F" stroke-width="2" stroke-linecap="round"/>
<path d="M23.2574 169.467C23.2574 170.02 23.1886 170.642 23.3262 171.126" stroke="#262626" stroke-width="2" stroke-linecap="round"/>
<path d="M46.032 191.165C46.032 191.51 45.8256 191.856 45.7568 192.132C45.6879 192.547 45.6879 192.892 45.6191 193.307" stroke="#262626" stroke-width="2" stroke-linecap="round"/>
<path d="M23.7383 169.951C23.9447 170.02 24.0823 170.228 24.1511 170.366C24.5639 170.849 25.0456 171.333 25.5272 171.817C26.8345 173.13 28.4171 174.235 29.7932 175.548C32.5454 178.174 35.0913 180.938 37.9811 183.426C39.0132 184.324 39.9765 185.361 41.0086 186.328C41.6278 186.95 42.3159 187.434 42.9351 188.055C43.348 188.47 43.8296 188.816 44.3112 189.23C44.5177 189.368 44.6553 189.645 44.9305 189.714" stroke="#262626" stroke-width="2" stroke-linecap="round"/>
<path d="M74.9301 167.808C74.6549 167.808 74.4484 167.463 74.5172 167.187C74.586 166.841 75.4117 166.841 75.6181 166.841C75.8246 166.841 76.9254 166.703 77.063 166.91C77.2695 167.394 76.5814 167.601 76.5814 168.016" stroke="#FE654F" stroke-width="2" stroke-linecap="round"/>
<path d="M74.9305 168.569C74.7929 168.776 74.036 170.78 74.2425 170.849C74.7241 171.126 75.6186 171.126 76.169 171.126C77.5451 171.126 76.5131 169.26 76.2378 168.707" stroke="#FE654F" stroke-width="2" stroke-linecap="round"/>
<path d="M75.6873 172.024C75.5497 172.922 75.4121 173.821 75.4121 174.788" stroke="#393939" stroke-width="2" stroke-linecap="round"/>
<path d="M48.5088 190.128C48.5088 189.921 48.7152 189.852 48.8528 189.714C49.3345 189.23 49.7473 188.815 50.2977 188.47C52.6371 186.95 55.2518 185.637 57.5912 184.116C59.7242 182.665 61.7883 181.076 63.8525 179.487C65.3662 178.312 66.88 177.345 68.4625 176.308C70.3203 175.064 72.0404 173.613 73.967 172.438" stroke="#393939" stroke-width="2" stroke-linecap="round"/>
<path d="M181.03 165.528C180.754 165.528 180.548 165.045 180.617 164.837C180.754 164.285 181.855 164.285 182.268 164.285C182.612 164.285 183.231 164.216 183.231 164.699C183.231 165.045 183.094 165.321 182.75 165.459" stroke="#FE654F" stroke-width="2" stroke-linecap="round"/>
<path d="M181.235 166.219C181.029 166.357 180.96 166.634 180.822 166.841C180.684 167.048 180.478 167.394 180.547 167.601C180.753 168.154 181.373 168.154 181.854 168.154C182.473 168.154 183.161 168.085 183.093 167.325C183.024 166.91 182.955 166.219 182.68 165.943" stroke="#FE654F" stroke-width="2" stroke-linecap="round"/>
<path d="M182.061 169.19C181.993 169.812 181.924 170.503 181.924 171.125" stroke="#393939" stroke-width="2" stroke-linecap="round"/>
</svg>
