<svg width="46" height="46" viewBox="0 0 46 46" fill="none" xmlns="http://www.w3.org/2000/svg">
<path fill-rule="evenodd" clip-rule="evenodd" d="M26.1032 7.03335C24.0214 6.33881 22.4349 6.4864 21.3503 7.11618C19.9839 7.90953 18.8393 8.80474 17.8968 9.77799C23.2326 10.6867 28.5228 14.4415 32.428 20.8035C33.8492 23.1188 34.9797 25.6926 35.6732 28.2045C36.3558 30.6771 36.6734 33.3023 36.2485 35.6399C35.8107 38.0485 34.4927 40.4515 31.7476 41.5579C29.2033 42.5834 26.1521 42.1811 22.893 40.9172C15.8806 38.1977 10.4516 31.0949 8.81878 23.5442C8.56553 22.3732 8.40223 21.182 8.33796 19.9856C7.78018 21.0866 7.37629 22.4025 7.17882 23.9437C6.01602 33.0189 10.808 38.013 14.5551 40.5007C15.9355 41.4171 16.3116 43.279 15.3951 44.6593C14.4787 46.0397 12.6168 46.4158 11.2365 45.4994C6.31805 42.234 -0.322424 35.2774 1.22747 23.1811C2.01992 16.9964 5.42209 12.475 10.1198 10.5656C11.6934 7.25024 14.3533 4.2408 18.3374 1.92746C21.3867 0.156895 24.8929 0.304483 28.002 1.34174C31.1224 2.38275 34.1532 4.4031 36.6774 6.92735L32.4348 11.17C30.4322 9.16739 28.1738 7.72415 26.1032 7.03335ZM14.6744 15.5887C14.1533 17.7469 14.1964 20.0251 14.6832 22.276C15.9565 28.1639 20.2069 33.4401 25.0625 35.3232C27.7375 36.3605 29.0306 36.184 29.5046 35.993C29.778 35.8828 30.1526 35.6267 30.3452 34.5669C30.5508 33.436 30.4368 31.7832 29.8896 29.8013C29.3533 27.8588 28.4558 25.8016 27.3145 23.9423C23.3291 17.4497 18.3311 15.2971 14.6744 15.5887Z" fill="#FE654F"/>
<path d="M45.1793 14.8796C45.567 15.6936 44.8936 16.612 44.0007 16.4871L28.3865 14.3017C27.5386 14.183 27.1244 13.2022 27.6307 12.5117L36.4655 0.462611C36.9718 -0.227851 38.0318 -0.127806 38.3999 0.645186L45.1793 14.8796Z" fill="#FE654F"/>
</svg>
