<svg width="64" height="64" viewBox="0 0 64 64" fill="none" xmlns="http://www.w3.org/2000/svg">
<path d="M39.0711 41.9142C39.8522 42.6953 41.1185 42.6953 41.8996 41.9142C42.6806 41.1332 42.6806 39.8668 41.8996 39.0858L35.5356 32.7218C35.1451 32.3313 35.1451 31.6981 35.5356 31.3076L41.8996 24.9437C42.6806 24.1626 42.6806 22.8963 41.8996 22.1152C41.1185 21.3342 39.8522 21.3342 39.0711 22.1152L30.5859 30.6005C29.8048 31.3816 29.8048 32.6479 30.5859 33.4289L39.0711 41.9142Z" fill="#3F3F3F"/>
<path d="M28.0711 41.9142C28.8522 42.6953 30.1185 42.6953 30.8996 41.9142C31.6806 41.1332 31.6806 39.8668 30.8996 39.0858L24.5356 32.7218C24.1451 32.3313 24.1451 31.6981 24.5356 31.3076L30.8996 24.9437C31.6806 24.1626 31.6806 22.8963 30.8996 22.1152C30.1185 21.3342 28.8522 21.3342 28.0711 22.1152L19.5859 30.6005C18.8048 31.3816 18.8048 32.6479 19.5859 33.4289L28.0711 41.9142Z" fill="#3F3F3F"/>
</svg>
