<svg width="40" height="40" viewBox="0 0 40 40" fill="none" xmlns="http://www.w3.org/2000/svg">
<path d="M9.76623 15.171C9.58108 14.5683 10.0318 13.9583 10.6624 13.9583H25.0984C25.5101 13.9583 25.8736 14.2269 25.9945 14.6205L26.8907 14.3452L25.9945 14.6205L28.3874 22.4106L30.4421 29.0997C30.6273 29.7024 30.1765 30.3124 29.5459 30.3124H15.11C14.6982 30.3124 14.3347 30.0438 14.2138 29.6502L9.76623 15.171Z" stroke="#3F3F3F" stroke-width="1.875"/>
<path d="M21.8357 21.3363L21.7352 21.5916L21.7882 21.8607L22.1341 23.6186L22.3951 24.9447L23.5458 24.2357L25.1271 23.2612L25.3932 23.0973L25.5077 22.8065L30.3512 10.5018L30.6908 9.63904L29.8319 9.28991L27.9045 8.5065L27.0264 8.14956L26.6792 9.03162L21.8357 21.3363Z" fill="#3F3F3F" stroke="#FCFCFC" stroke-width="1.875"/>
<line x1="13.75" y1="16.7708" x2="17.0833" y2="16.7708" stroke="#5C5C5C" stroke-width="1.875" stroke-linecap="round"/>
<line x1="15.833" y1="21.9791" x2="19.1663" y2="21.9791" stroke="#5C5C5C" stroke-width="1.875" stroke-linecap="round"/>
<line x1="19.4795" y1="16.7708" x2="19.6878" y2="16.7708" stroke="#5C5C5C" stroke-width="1.875" stroke-linecap="round"/>
<line x1="14.792" y1="19.375" x2="15.0003" y2="19.375" stroke="#5C5C5C" stroke-width="1.875" stroke-linecap="round"/>
<line x1="17.3955" y1="19.375" x2="17.6038" y2="19.375" stroke="#5C5C5C" stroke-width="1.875" stroke-linecap="round"/>
</svg>
