<svg width="64" height="64" viewBox="0 0 64 64" fill="none" xmlns="http://www.w3.org/2000/svg">
<path fill-rule="evenodd" clip-rule="evenodd" d="M36.3335 34.6875L44.0831 15L47.1668 16.2534L39.4172 35.941L36.887 37.5L36.3335 34.6875Z" fill="#3F3F3F"/>
<path fill-rule="evenodd" clip-rule="evenodd" d="M38.5629 20.8334H17.0599C15.0421 20.8334 13.5997 22.7854 14.1921 24.7143L21.3083 47.881C21.6951 49.1404 22.8585 50.0001 24.176 50.0001H47.2736C49.2914 50.0001 50.7338 48.048 50.1413 46.1192L45.0979 29.7001L43.3351 34.1784L47.2736 47.0001H24.176L17.0599 23.8334H37.382L38.5629 20.8334ZM41.922 29.5778L40.3541 24.4735L41.634 21.2219C42.2863 21.5909 42.7942 22.2004 43.0252 22.9525L43.6847 25.0996L41.922 29.5778Z" fill="#3F3F3F"/>
<line x1="22" y1="26.8333" x2="27.3333" y2="26.8333" stroke="#5C5C5C" stroke-width="3" stroke-linecap="round"/>
<line x1="25.3335" y1="35.1666" x2="30.6668" y2="35.1666" stroke="#5C5C5C" stroke-width="3" stroke-linecap="round"/>
<line x1="31.1667" y1="26.8333" x2="31.5001" y2="26.8333" stroke="#5C5C5C" stroke-width="3" stroke-linecap="round"/>
<line x1="23.6667" y1="31" x2="24.0001" y2="31" stroke="#5C5C5C" stroke-width="3" stroke-linecap="round"/>
<line x1="27.8335" y1="31" x2="28.1668" y2="31" stroke="#5C5C5C" stroke-width="3" stroke-linecap="round"/>
</svg>
