<svg width="402" height="187" viewBox="0 0 402 187" fill="none" xmlns="http://www.w3.org/2000/svg">
<path d="M1 156.054H401" stroke="#3F3F3F" stroke-width="2" stroke-linecap="round"/>
<path d="M198.786 152.124C198.786 152.124 198.546 151.25 195.292 156.644C192.039 162.037 188.186 165.917 182.686 168.917C177.186 171.917 168.366 175.084 161.526 176.17C154.686 177.257 155.292 176.51 148.779 174.417C142.266 172.324 138.439 165.87 137.926 156.324C137.412 146.777 143.326 138.244 148.572 129.804C153.819 121.364 159.939 116.03 168.512 109.317C177.086 102.604 188.032 96.8569 195.872 94.5902" fill="white"/>
<path d="M198.786 152.124C198.786 152.124 198.546 151.25 195.292 156.644C192.039 162.037 188.186 165.917 182.686 168.917C177.186 171.917 168.366 175.084 161.526 176.17C154.686 177.257 155.292 176.51 148.779 174.417C142.266 172.324 138.439 165.87 137.926 156.324C137.412 146.777 143.326 138.244 148.572 129.804C153.819 121.364 159.939 116.03 168.512 109.317C177.086 102.604 188.032 96.8569 195.872 94.5902" stroke="#3F3F3F" stroke-width="2" stroke-linecap="round" stroke-linejoin="round"/>
<path d="M188.133 28.1835C185.393 27.2435 191.593 19.7102 196.859 16.9035C202.133 14.0968 209.573 9.95683 220.273 10.0568C230.973 10.1568 237.466 11.8168 245.593 15.9302C253.719 20.0435 255.799 23.6302 258.066 26.6835C260.333 29.7368 261.919 36.3035 260.699 38.2968C259.479 40.2902 257.313 42.4635 257.279 42.8302" stroke="#3F3F3F" stroke-width="2" stroke-linecap="round" stroke-linejoin="round"/>
<path d="M195.52 36.8102C195.566 39.0168 196.26 40.7702 198.193 40.8235" stroke="#3F3F3F" stroke-width="2" stroke-linecap="round" stroke-linejoin="round"/>
<path d="M185.486 34.8035C185.973 36.6501 186.113 40.1035 188.2 40.9968C190.286 41.8902 192.3 42.1302 193.513 42.1568" stroke="#3F3F3F" stroke-width="2" stroke-linecap="round" stroke-linejoin="round"/>
<path d="M173.459 35.4768C173.445 38.5768 173.579 40.5901 177.339 42.2701C181.099 43.9501 185.432 45.5901 188.505 45.5035C191.579 45.4168 191.872 44.7702 192.172 44.2902" stroke="#3F3F3F" stroke-width="2" stroke-linecap="round" stroke-linejoin="round"/>
<path d="M198.925 52.5969C199.179 57.3769 203.559 59.8569 206.579 59.5569C209.599 59.2569 213.339 57.4702 213.179 51.2102C213.019 44.9502 209.412 43.0569 206.439 42.8702C203.466 42.6835 198.572 46.0235 198.919 52.6035L198.925 52.5969Z" stroke="#3F3F3F" stroke-width="2" stroke-linecap="round" stroke-linejoin="round"/>
<path d="M221.539 48.5502C221.773 55.6902 225.513 59.0969 230.119 58.9502C234.726 58.8036 237.159 55.1769 238.433 52.9369C239.706 50.6969 239.793 49.7302 240.026 47.7236C240.259 45.7169 239.046 42.1369 236.026 39.9169C233.006 37.6969 230.859 36.7235 227.679 38.0435C224.499 39.3635 221.366 43.4569 221.533 48.5502H221.539Z" stroke="#3F3F3F" stroke-width="2" stroke-linecap="round" stroke-linejoin="round"/>
<path d="M206.446 49.5435V49.7968" stroke="#3F3F3F" stroke-width="2" stroke-linecap="round" stroke-linejoin="round"/>
<path d="M231.013 46.8102V47.0235" stroke="#3F3F3F" stroke-width="2" stroke-linecap="round" stroke-linejoin="round"/>
<path d="M213.186 54.5302L222.206 53.2435" stroke="#3F3F3F" stroke-width="2" stroke-linecap="round" stroke-linejoin="round"/>
<path d="M218.686 58.5035C215.606 58.8369 212.739 58.9569 213.039 61.3969C213.299 63.5036 214.719 63.8302 218.893 64.0636" stroke="#3F3F3F" stroke-width="2" stroke-linecap="round" stroke-linejoin="round"/>
<path d="M249.786 49.4634C249.939 48.5501 250.332 47.4368 252.092 47.6435C253.852 47.8501 256.039 50.6901 255.566 54.3701C255.092 58.0501 252.732 60.2901 251.699 59.9901C250.666 59.6901 249.079 58.6168 249.079 58.6168" stroke="#3F3F3F" stroke-width="2" stroke-linecap="round" stroke-linejoin="round"/>
<path d="M196.193 65.5769C196.166 73.5102 199.019 77.0969 200.766 80.3035C202.513 83.5102 207.853 87.7836 212.493 89.3702C217.133 90.9502 224.113 90.2769 227.359 88.9302C230.606 87.5836 235.039 85.4635 238.139 82.2502C241.239 79.0369 245.006 74.2036 246.339 69.3969" stroke="#3F3F3F" stroke-width="2" stroke-linecap="round" stroke-linejoin="round"/>
<path d="M210.026 77.9168C209.939 76.0701 211.119 73.7368 213.126 73.5368C215.133 73.3368 216.479 75.9502 217.919 75.7302C219.359 75.5102 220.346 72.5235 222.046 72.2835C223.746 72.0435 225.613 71.4035 226.533 71.6701C227.453 71.9368 228.713 73.9702 229.993 74.2635C231.273 74.5568 230.499 76.0968 230.499 76.0968" stroke="#3F3F3F" stroke-width="2" stroke-linecap="round" stroke-linejoin="round"/>
<path d="M289.839 134.443C287.459 136.837 287.739 136.883 285.892 136.657C284.046 136.43 277.052 133.21 277.052 133.21C277.052 133.21 275.212 140.69 272.066 143.19C268.919 145.69 266.079 149.37 261.199 148.437C261.199 148.437 261.932 148.883 263.146 149.623C264.359 150.363 265.726 152.937 268.406 153.703C271.086 154.47 275.632 156.237 281.259 158.723C286.886 161.203 296.339 162.15 301.659 158.843C306.979 155.537 311.352 151.557 312.026 147.357C312.699 143.157 312.926 137.37 311.932 132.397C310.939 127.423 308.739 124.857 304.826 118.75C300.912 112.643 296.259 109.603 292.726 106.13C289.192 102.657 281.066 97.6168 276.012 95.3368C270.952 93.0568 261.992 88.4301 259.446 87.6368C256.899 86.8435 251.266 86.1968 245.532 86.4168" fill="white"/>
<path d="M289.839 134.443C287.459 136.837 287.739 136.883 285.892 136.657C284.046 136.43 277.052 133.21 277.052 133.21C277.052 133.21 275.212 140.69 272.066 143.19C268.919 145.69 266.079 149.37 261.199 148.437C261.199 148.437 261.932 148.883 263.146 149.623C264.359 150.363 265.726 152.937 268.406 153.703C271.086 154.47 275.632 156.237 281.259 158.723C286.886 161.203 296.339 162.15 301.659 158.843C306.979 155.537 311.352 151.557 312.026 147.357C312.699 143.157 312.926 137.37 311.932 132.397C310.939 127.423 308.739 124.857 304.826 118.75C300.912 112.643 296.259 109.603 292.726 106.13C289.192 102.657 281.066 97.6168 276.012 95.3368C270.952 93.0568 261.992 88.4301 259.446 87.6368C256.899 86.8435 251.266 86.1968 245.532 86.4168" stroke="#3F3F3F" stroke-width="2" stroke-linecap="round" stroke-linejoin="round"/>
<path d="M261.199 148.437C260.279 147.957 261.052 146.47 261.052 146.47" stroke="#3F3F3F" stroke-width="2" stroke-linecap="round" stroke-linejoin="round"/>
<path d="M164.112 141.343C164.112 141.343 170.919 138.377 173.852 137.43C176.786 136.483 185.139 133.49 186.446 132.13C186.446 132.13 186.079 135.323 186.446 137.37C186.812 139.417 188.059 145.03 191.219 147.663C194.379 150.297 196.806 154.117 199.172 151.75C201.539 149.383 197.726 144.623 197.726 144.623" stroke="#3F3F3F" stroke-width="2" stroke-linecap="round" stroke-linejoin="round"/>
<path d="M186.372 132.937C186.372 132.937 190.145 131.23 191.819 129.93C193.492 128.63 197.139 124.577 197.072 122.437C197.005 120.297 196.159 118.223 195.879 115.697C195.599 113.17 197.785 109.977 198.565 109.563" stroke="#3F3F3F" stroke-width="2" stroke-linecap="round" stroke-linejoin="round"/>
<path d="M191.879 145.89L200.292 142.037C200.832 143.57 204.266 143.957 207.026 140.61C209.786 137.263 210.546 136.53 210.226 132.13C209.906 127.73 208.792 126.644 209.186 124.45C209.579 122.257 211.032 115.997 211.306 114.937C211.579 113.877 216.479 112.937 218.732 112.437C220.986 111.937 220.786 109.877 219.339 109.017C217.892 108.157 216.219 107.55 213.166 108.45C210.112 109.35 207.199 109.97 206.819 110.497C206.439 111.024 203.252 119.357 203.326 120.23C203.399 121.103 203.739 121.85 203.739 121.85" stroke="#3F3F3F" stroke-width="2" stroke-linecap="round" stroke-linejoin="round"/>
<path d="M199.826 119.33C199.826 119.33 199.379 114.89 199.319 114.003C199.259 113.117 197.986 111.803 198.786 109.563C199.586 107.323 198.946 105.857 201.272 104.977C203.599 104.097 203.446 103.61 206.519 103.67C209.592 103.73 211.872 103.71 213.086 104.683C214.299 105.657 214.259 108.443 212.506 108.637C210.752 108.83 204.512 109.83 204.512 109.83C204.512 109.83 203.926 113.297 205.312 114.123" stroke="#3F3F3F" stroke-width="2" stroke-linecap="round" stroke-linejoin="round"/>
<path d="M203.526 104.01C203.526 104.01 202.159 102.93 205.653 101.557C209.139 100.183 213.453 98.8902 215.999 99.0702C218.546 99.2502 218.706 103.037 217.046 103.597C215.386 104.157 213.533 104.917 213.533 104.917" stroke="#3F3F3F" stroke-width="2" stroke-linecap="round" stroke-linejoin="round"/>
<path d="M212.492 123.33C213.239 123.904 213.952 124.13 215.959 123.924C217.966 123.717 221.246 123.904 221.699 124.93C222.152 125.957 222.152 129.417 219.132 129.344C216.112 129.27 214.419 129.97 213.386 129.944" stroke="#3F3F3F" stroke-width="2" stroke-linecap="round" stroke-linejoin="round"/>
<path d="M276.425 135.33L270.832 133.203" stroke="#3F3F3F" stroke-width="2" stroke-linecap="round" stroke-linejoin="round"/>
<path d="M264.146 128.817L270.832 132.517C270.832 132.517 266.026 144.177 261.693 144.89C261.693 144.89 257.486 144.797 255.812 141.857C255.812 141.857 261.766 136.51 264.146 128.817Z" stroke="#3F3F3F" stroke-width="2" stroke-linecap="round" stroke-linejoin="round"/>
<path d="M261.419 116.13C258.999 117.064 263.452 122.224 266.052 124.91C268.652 127.597 273.979 130.837 276.385 129.197C278.792 127.557 274.019 122.85 272.339 121.024C270.659 119.197 264.732 114.857 261.412 116.137L261.419 116.13Z" stroke="#3F3F3F" stroke-width="2" stroke-linecap="round" stroke-linejoin="round"/>
<path d="M260.799 116.71C260.799 116.71 258.679 119.53 258.446 120.59C258.212 121.65 260.579 125.497 262.446 126.764" stroke="#3F3F3F" stroke-width="2" stroke-linecap="round" stroke-linejoin="round"/>
<path d="M276.253 129.857C276.253 129.857 273.913 132.637 272.593 132.93" stroke="#3F3F3F" stroke-width="2" stroke-linecap="round" stroke-linejoin="round"/>
<path d="M263.412 144.837L265.685 146.21" stroke="#3F3F3F" stroke-width="2" stroke-linecap="round" stroke-linejoin="round"/>
<path d="M257.806 139.064L251.286 135.164C251.286 135.164 244.212 136.03 242.492 133.47C240.772 130.91 239.372 129.53 239.866 125.923C240.359 122.317 240.312 121.957 239.966 121.39C239.619 120.823 238.706 120.777 238.566 117.357C238.566 117.357 237.532 114.677 233.052 113.737C228.572 112.797 225.392 111.224 224.906 109.564C224.419 107.904 223.666 107.124 229.692 107.704C235.719 108.284 235.359 108.084 236.972 108.437C238.586 108.79 240.912 109.557 242.079 110.337C243.246 111.117 245.646 116.997 245.646 116.997" stroke="#3F3F3F" stroke-width="2" stroke-linecap="round" stroke-linejoin="round"/>
<path d="M228.719 105.217C228.719 105.217 226.946 103.597 230.759 103.677C234.573 103.757 238.373 104.077 240.906 104.923C243.439 105.77 245.059 106.063 246.399 107.13C247.739 108.197 247.506 112.89 248.339 113.883C249.173 114.877 249.193 116.664 249.233 117.357" stroke="#3F3F3F" stroke-width="2" stroke-linecap="round" stroke-linejoin="round"/>
<path d="M227.713 104.23C226.246 103.63 225.833 101.65 229.18 101.597C232.526 101.544 235.306 101.25 238.973 102.29C242.64 103.33 244.613 103.53 244.52 105.564" stroke="#3F3F3F" stroke-width="2" stroke-linecap="round" stroke-linejoin="round"/>
<path d="M251.633 118.443C251.633 118.443 254.406 120.963 255.979 121.39" stroke="#3F3F3F" stroke-width="2" stroke-linecap="round" stroke-linejoin="round"/>
<path d="M234.812 123.39C233.052 122.757 230.652 123.517 229.686 123.497C228.719 123.477 224.926 123.324 224.806 125.85C224.686 128.377 225.486 128.817 227.339 128.897C229.192 128.977 230.259 128.15 230.972 128.277C231.686 128.404 235.292 129.117 235.292 129.117" stroke="#3F3F3F" stroke-width="2" stroke-linecap="round" stroke-linejoin="round"/>
<path d="M352.732 151.404C365.719 153.21 373.432 145.524 374.999 137.137C376.565 128.75 375.912 124.53 368.512 119.43C361.112 114.33 359.099 113.344 348.805 114.33C338.512 115.317 333.965 125.664 332.819 130.137C331.332 135.93 333.559 148.737 352.732 151.404V151.404Z" stroke="#3F3F3F" stroke-width="2" stroke-linecap="round" stroke-linejoin="round"/>
<path d="M348.806 121.25C348.806 121.25 351.866 133.463 353.772 134.763C353.772 134.763 356.419 130.543 357.646 129.697" stroke="#3F3F3F" stroke-width="2" stroke-linecap="round" stroke-linejoin="round"/>
<path d="M333.759 121.577C329.446 118.89 333.639 113.703 334.806 112.843C335.973 111.983 341.159 108.61 344.419 112.063" stroke="#3F3F3F" stroke-width="2" stroke-linecap="round" stroke-linejoin="round"/>
<path d="M333.866 110.817L334.666 111.85" stroke="#3F3F3F" stroke-width="2" stroke-linecap="round" stroke-linejoin="round"/>
<path d="M368.979 115.83C371.073 113.49 378.74 113.143 381.52 117.803C384.3 122.463 381.246 125.99 378.906 126.283" stroke="#3F3F3F" stroke-width="2" stroke-linecap="round" stroke-linejoin="round"/>
<path d="M383.113 116.09L382.053 116.744" stroke="#3F3F3F" stroke-width="2" stroke-linecap="round" stroke-linejoin="round"/>
<path d="M353.892 111.85C353.892 111.85 353.646 110.07 354.192 109.897C354.739 109.724 359.772 110.484 360.119 110.784C360.466 111.084 360.119 112.644 360.119 112.644" stroke="#3F3F3F" stroke-width="2" stroke-linecap="round" stroke-linejoin="round"/>
<path d="M343.972 149.09C342.646 152.304 341.686 158.544 341.626 160.05L340.346 160.444" stroke="#3F3F3F" stroke-width="2" stroke-linecap="round" stroke-linejoin="round"/>
<path d="M361.499 151.07C361.499 151.07 362.892 158.943 362.746 161.217L363.819 161.803" stroke="#3F3F3F" stroke-width="2" stroke-linecap="round" stroke-linejoin="round"/>
<path d="M41.0322 150.21V159.323L65.5056 160.017L64.9789 149.117L41.0322 150.21Z" fill="white"/>
<path opacity="0.2" d="M362.273 121.217L361.3 122.944" stroke="#3F3F3F" stroke-width="2" stroke-linecap="round" stroke-linejoin="round"/>
<path opacity="0.2" d="M368.073 127.197L366.946 128.37" stroke="#3F3F3F" stroke-width="2" stroke-linecap="round" stroke-linejoin="round"/>
<path opacity="0.2" d="M369.48 135.464C369.48 135.464 368.433 135.01 367.687 135.197" stroke="#3F3F3F" stroke-width="2" stroke-linecap="round" stroke-linejoin="round"/>
<path opacity="0.2" d="M364.206 144.084C364.206 144.084 363.193 143.457 363.046 143.01" stroke="#3F3F3F" stroke-width="2" stroke-linecap="round" stroke-linejoin="round"/>
<path opacity="0.2" d="M355.939 145.844V144.61" stroke="#3F3F3F" stroke-width="2" stroke-linecap="round" stroke-linejoin="round"/>
<path opacity="0.2" d="M348.727 144.964C348.727 144.964 349.16 143.797 349.653 143.33" stroke="#3F3F3F" stroke-width="2" stroke-linecap="round" stroke-linejoin="round"/>
<path opacity="0.2" d="M340.986 141.444L341.246 140.897" stroke="#3F3F3F" stroke-width="2" stroke-linecap="round" stroke-linejoin="round"/>
<path opacity="0.2" d="M338.52 134.764H339.226" stroke="#3F3F3F" stroke-width="2" stroke-linecap="round" stroke-linejoin="round"/>
<path opacity="0.2" d="M340.986 127.37C340.986 127.37 341.88 127.73 342.746 127.544" stroke="#3F3F3F" stroke-width="2" stroke-linecap="round" stroke-linejoin="round"/>
<path opacity="0.2" d="M346.966 120.864V121.043" stroke="#3F3F3F" stroke-width="2" stroke-linecap="round" stroke-linejoin="round"/>
<path opacity="0.2" d="M354.833 118.817V119.45" stroke="#3F3F3F" stroke-width="2" stroke-linecap="round" stroke-linejoin="round"/>
<path d="M47.0395 121.064C46.6395 121.197 46.3995 121.597 46.4661 122.017C47.1928 126.444 51.1595 150.29 53.3128 154.21C55.6928 158.537 59.0995 167.05 59.0328 168.59C59.0328 168.59 116.353 164.35 122.093 163.177C122.093 163.177 123.273 161.93 123.273 160.037C123.273 160.037 122.219 156.024 121.806 154.53C121.393 153.037 121.359 150.824 120.493 148.704C119.626 146.584 118.406 143.724 118.039 135.644C117.719 128.524 115.999 118.177 115.599 115.83C115.553 115.55 115.306 115.357 115.026 115.364C110.473 115.524 75.6195 116.784 69.8595 117.23C63.9795 117.684 52.1061 119.377 47.0328 121.064H47.0395Z" fill="white" stroke="#3F3F3F" stroke-width="2" stroke-linecap="round" stroke-linejoin="round"/>
<path d="M42.0259 122.43C42.0259 122.43 38.2992 134.697 36.9126 137.624C35.5259 140.55 35.0392 146.79 34.3326 149.217C33.6259 151.644 31.6126 162.704 32.7326 164.31C33.8526 165.917 38.5459 165.817 43.0326 164.204" fill="white"/>
<path d="M42.0259 122.43C42.0259 122.43 38.2992 134.697 36.9126 137.624C35.5259 140.55 35.0392 146.79 34.3326 149.217C33.6259 151.644 31.6126 162.704 32.7326 164.31C33.8526 165.917 38.5459 165.817 43.0326 164.204" stroke="#3F3F3F" stroke-width="2" stroke-linecap="round" stroke-linejoin="round"/>
<path d="M53.9795 114.124C54.9795 112.724 57.3928 113.697 58.4062 116.023C59.4195 118.35 59.4462 121.243 58.3795 121.923" stroke="#3F3F3F" stroke-width="2" stroke-linecap="round" stroke-linejoin="round"/>
<path d="M59.8926 113.497C61.2459 113.11 63.2126 112.59 64.2592 114.737C65.3059 116.883 65.1126 120.597 64.1659 121.55" stroke="#3F3F3F" stroke-width="2" stroke-linecap="round" stroke-linejoin="round"/>
<path d="M67.5723 112.864C69.7723 112.05 71.4056 112.684 72.2789 115.357C73.1523 118.03 71.5523 120.07 70.7189 121.043" stroke="#3F3F3F" stroke-width="2" stroke-linecap="round" stroke-linejoin="round"/>
<path d="M74.6191 112.49C76.9458 112.057 77.4525 113.297 78.3858 115.077C79.3191 116.857 78.2725 120.004 77.3858 120.544" stroke="#3F3F3F" stroke-width="2" stroke-linecap="round" stroke-linejoin="round"/>
<path d="M81.7861 112.364C83.1795 111.83 83.6995 112.577 84.7928 114.357C85.8861 116.137 83.8061 118.784 83.4195 119.284" stroke="#3F3F3F" stroke-width="2" stroke-linecap="round" stroke-linejoin="round"/>
<path d="M88.0791 111.484C89.7591 112.277 90.9124 113.25 90.8858 114.583C90.8591 115.917 91.1324 118.517 89.4591 119.917" stroke="#3F3F3F" stroke-width="2" stroke-linecap="round" stroke-linejoin="round"/>
<path d="M93.9922 112.11C95.3322 111.237 97.1989 112.037 98.1255 113.643C99.0522 115.25 98.9055 118.624 97.6389 119.41" stroke="#3F3F3F" stroke-width="2" stroke-linecap="round" stroke-linejoin="round"/>
<path d="M101.293 111.737C103.026 111.61 104.053 112.257 104.766 113.983C105.48 115.71 104.373 118.95 103.18 120.17" stroke="#3F3F3F" stroke-width="2" stroke-linecap="round" stroke-linejoin="round"/>
<path d="M59.5859 138.637C60.0726 138.59 60.5926 138.29 61.0726 138.184C63.8059 137.557 66.5193 137.39 69.3126 137.21C74.3059 136.883 79.2993 136.564 84.2859 136.184C89.7459 135.77 95.2059 135.65 100.666 135.31C103.966 135.104 107.226 134.377 110.533 134.377C110.893 134.377 111.786 134.377 111.639 134.377" stroke="#E2E2E2" stroke-width="2" stroke-linecap="round"/>
<path d="M64.3994 153.177C65.3661 153.097 66.3127 152.784 67.2794 152.657C71.0794 152.157 74.9794 152.19 78.8061 151.97C87.8061 151.45 96.7994 150.664 105.733 149.484C107.846 149.204 114.206 148.697 112.073 148.697" stroke="#E2E2E2" stroke-width="2" stroke-linecap="round"/>
<path d="M69.8662 130.87C70.7795 133.044 71.2462 135.47 71.8862 137.737C72.8929 141.31 73.9929 144.804 75.3262 148.27C76.4462 151.184 77.2195 154.41 78.9462 157.004" stroke="#E2E2E2" stroke-width="2" stroke-linecap="round"/>
<path d="M85.5059 129.01C85.8792 129.683 86.0992 130.377 86.2925 131.123C86.8859 133.483 87.3792 135.863 87.7992 138.27C88.2259 140.703 88.8459 143.057 89.4325 145.45C89.8459 147.123 90.1392 148.85 90.8659 150.423C91.6925 152.223 92.3192 153.963 92.6992 155.923C92.7592 156.223 92.7792 157.743 93.0525 157.877" stroke="#E2E2E2" stroke-width="2" stroke-linecap="round"/>
<path d="M102.126 127.37C102.666 130.51 103.099 133.677 103.553 136.83C103.853 138.937 104.039 141.03 104.179 143.157C104.299 144.897 104.473 146.57 105.033 148.23C105.559 149.804 106.026 151.237 106.286 152.877C106.386 153.524 106.426 154.23 106.726 154.824" stroke="#E2E2E2" stroke-width="2" stroke-linecap="round"/>
<path d="M97.6993 147.064C96.086 146.824 93.506 146.877 92.626 145.177C92.1393 144.23 91.7059 143.11 91.5259 142.05C91.0993 139.557 93.446 135.744 96.206 135.804C97.5526 135.83 98.8793 136.85 99.9793 137.517C101.166 138.237 102.193 139.164 102.699 140.49C103.073 141.457 102.939 142.93 102.339 143.784C102.179 144.01 102.326 143.917 102.466 143.85" stroke="#5C5C5C" stroke-width="2" stroke-linecap="round"/>
<path d="M96.6729 132.677C97.2795 134.237 97.0662 135.937 97.1129 137.577C97.1395 138.624 97.1662 139.67 97.1862 140.717C97.1862 140.937 97.0795 142.597 97.4329 142.657C97.5795 142.684 98.0062 142.13 98.0862 142.057C98.7595 141.477 99.5395 141.064 100.286 140.59C102.026 139.477 103.84 138.277 105.4 136.91" stroke="#5C5C5C" stroke-width="2" stroke-linecap="round"/>
</svg>
