<svg width="32" height="28" viewBox="0 0 32 28" fill="none" xmlns="http://www.w3.org/2000/svg">
<path d="M14.1274 0.999985C14.8972 -0.333348 16.8217 -0.333349 17.5915 0.999984L31.4479 25C32.2177 26.3333 31.2554 28 29.7158 28H2.00301C0.463409 28 -0.498842 26.3333 0.270958 25L14.1274 0.999985Z" fill="white"/>
<path d="M14.0255 8.99313C13.9361 7.92021 14.7828 7.00002 15.8594 7.00004V7.00004C16.936 7.00006 17.7827 7.92023 17.6933 8.99313L16.9424 18.0035C16.8955 18.5668 16.4246 19.0001 15.8594 19.0001V19.0001C15.2941 19.0001 14.8233 18.5668 14.7763 18.0035L14.0255 8.99313Z" fill="#FEA34F"/>
<circle cx="15.8594" cy="23" r="2" fill="#FEA34F"/>
</svg>
